<?xml version="1.0" encoding="utf-8"?>
<!-- Generator: Adobe Illustrator 23.0.4, SVG Export Plug-In . SVG Version: 6.00 Build 0)  -->
<svg version="1.1" id="infographic" xmlns="http://www.w3.org/2000/svg" xmlns:xlink="http://www.w3.org/1999/xlink" x="0px"
	 y="0px" viewBox="0 0 382.16 50" style="enable-background:new 0 0 382.16 50;" xml:space="preserve">
<style type="text/css">
	.st0{fill:#F2EDED;}
	.st1{fill:#808080;}
	.st2{fill:#E50505;}
	.st3{fill:#FFFFFF;stroke:#4D4D4D;stroke-miterlimit:10;}
	.st4{fill:#4D4D4D;}
	.st5{fill:none;stroke:#C1272D;stroke-miterlimit:10;}
	.st6{fill:none;stroke:#999999;stroke-width:0.5;stroke-miterlimit:10;}
	.st7{fill:#C6C1C1;}
	.st8{fill:#6F8BEF;}
	.st9{fill:#EBEDF2;}
	.st10{fill:none;}
	.st11{font-family:'MyriadPro-Regular';}
	.st12{font-size:14px;}
	.st13{font-size:9px;}
	.st14{opacity:0.2;fill:#6F8BEF;}
	.st15{fill:none;stroke:#2E3192;stroke-width:0.25;stroke-miterlimit:10;}
	.st16{fill:#0B0B0C;}
	.st17{fill:#F99223;}
	.st18{fill:#3F2103;}
	.st19{opacity:0.6;fill:none;stroke:#000000;stroke-width:0.25;stroke-miterlimit:10;}
	.st20{fill:#C7B299;}
	.st21{fill:none;stroke:#000000;stroke-width:0.05;stroke-miterlimit:10;}
	.st22{opacity:0.3;fill:#6F8BEF;}
	.st23{fill:#6A6B6D;}
	.st24{fill:#6E64F9;}
	.st25{fill:#89D2F7;}
	.st26{fill:none;stroke:#000000;stroke-miterlimit:10;}
	.st27{fill:#3FA9F5;}
	.st28{fill:#7373F4;}
	.st29{fill:#D7D7DB;}
	.st30{fill:#2B2BED;}
	.st31{fill:#F4D916;}
	.st32{fill:#F7849D;}
	.st33{fill:#19F219;}
</style>
<rect id="background" x="-113.5" y="-310" class="st0" width="612" height="1756"/>
<rect x="19.6" y="-276.88" class="st10" width="386.88" height="34.56"/>
<text id="title" transform="matrix(1 0 0 1 19.6001 -261.5918)" style="font-family:'ArialRoundedMTBold'; font-size:21px;">TEENAGERS AND E-CIGARETTES</text>
<rect x="91" y="-231" class="st10" width="387" height="141"/>
<text id="intro" transform="matrix(1 0 0 1.25 91 -222.2642)"><tspan x="0" y="0" style="font-family:'ArialRoundedMTBold'; font-size:12px; letter-spacing:33;">			</tspan><tspan x="108" y="0" style="font-family:'ArialRoundedMTBold'; font-size:12px;">WHAT IS VAPING?</tspan><tspan x="0" y="16.8" style="font-family:'ArialRoundedMTBold'; font-size:11px;">Vaping is the act of inhaling and exhaling the aerosol often referred to as </tspan><tspan x="0" y="33.6" style="font-family:'ArialRoundedMTBold'; font-size:11px;">vapor produced by an e-cigarette or a similar device. It is called vaping </tspan><tspan x="0" y="50.4" style="font-family:'ArialRoundedMTBold'; font-size:11px;">because e-cigarettes do not produce tobacco smoke but an aerosol </tspan><tspan x="0" y="67.2" style="font-family:'ArialRoundedMTBold'; font-size:11px;">often mistaken for wtaer vapour that actually contains fine particles. </tspan><tspan x="0" y="84" style="font-family:'ArialRoundedMTBold'; font-size:11px;">Many of these particles contain varying amounts of toxic chemicals, </tspan><tspan x="0" y="100.8" style="font-family:'ArialRoundedMTBold'; font-size:11px;">which have been linked to heart and respiratory diseases and cancer.</tspan></text>
<g id="Fig.1">
	<g id="e-cigarette">
		<polygon id="cap" class="st1" points="-18.33,-212.82 -6.19,-212.82 -6.19,-201.7 -17.99,-201.7 		"/>
		<path id="body_2_" class="st2" d="M-0.46-101.9v-93.05c0,0-0.67-2.02-4.05-4.05c0,0,2.02-2.7-2.02-2.7s-12.14,0-12.14,0
			s-3.37,0.67-0.67,2.7c0,0-4.72,1.35-4.72,4.05c0,2.7,0,92.38,0,92.38s0,4.05,3.37,4.05h16.86C-3.83-98.53-1.13-97.85-0.46-101.9z"
			/>
		<circle id="power_x5F_button" class="st3" cx="-12.26" cy="-156.85" r="4.05"/>
		<g id="atomizer">
			<g id="little_x5F_holes">
				<circle class="st4" cx="-18.67" cy="-193.6" r="1.35"/>
				<circle class="st4" cx="-5.86" cy="-193.6" r="1.35"/>
			</g>
			<path id="lining" class="st5" d="M-23.72-177.76c0,0,0,2.02,2.02,3.37h18.21c0,0,2.02-0.67,2.7-2.7"/>
		</g>
	</g>
	<g id="lines">
		<line class="st6" x1="-6.5" y1="-206.8" x2="24.32" y2="-206.8"/>
		<line class="st6" x1="-3.78" y1="-186.86" x2="27.04" y2="-186.86"/>
		<line class="st6" x1="-1.97" y1="-129.76" x2="28.85" y2="-129.76"/>
		<line class="st6" x1="-10.13" y1="-156.04" x2="20.69" y2="-156.04"/>
	</g>
	<g id="text">
		<rect x="25.61" y="-209.4" class="st10" width="41.77" height="9.79"/>
		<text transform="matrix(1 0 0 1 25.606 -205.5342)" class="st11" style="font-size:5.4386px;">Drip Tip </text>
		<rect x="29.23" y="-132.35" class="st10" width="41.77" height="9.79"/>
		<text transform="matrix(1 0 0 1 29.2314 -128.4878)" class="st11" style="font-size:5.4386px;">Battery </text>
		<rect x="27.42" y="-189.45" class="st10" width="41.77" height="9.79"/>
		<text transform="matrix(1 0 0 1 27.4185 -185.5928)" class="st11" style="font-size:5.4386px;">Atomizer </text>
		<rect x="21.07" y="-158.64" class="st10" width="41.77" height="9.79"/>
		<text transform="matrix(1 0 0 1 21.0737 -154.7739)" class="st11" style="font-size:5.4386px;">Power Button</text>
	</g>
	<rect x="-25.52" y="-92.24" class="st10" width="41.04" height="15.84"/>
	<text transform="matrix(1 0 0 1.25 -25.52 -84.9604)" style="font-family:'ArialRoundedMTBold'; font-size:10px;">Fig.1</text>
</g>
<g id="fig_x5F_1.2">
	<path id="background_2_" class="st7" d="M1.87,0h378.01c0,0,6.32,50-2.11,50S1.87,50,1.87,50S-2.34,11.9,1.87,0z"/>
	<g id="avatars">
		<g id="blue">
			<g id="avatar">
				<circle id="body" class="st8" cx="24.37" cy="5.77" r="3.38"/>
				<path id="head" class="st8" d="M17.24,10.92c0,0-2.58,0.84-2.58,2.64s0,10.8,0,10.8s1.08,1.98,3.36,0V15.9c0,0,0.54-1.86,1.02,0
					v27.24c0,0,2.82,3.6,4.14,0V30c0,0,0.9-1.32,1.56-0.06v13.38c0,0,2.34,3,4.2,0V15.84c0,0,1.02-1.56,1.74,0l0.24,8.4
					c0,0,1.38,2.22,2.46,0V13.32c0,0,0.24-1.86-2.4-2.4H17.24z"/>
			</g>
			<g id="avatar_3_">
				<circle id="body_4_" class="st8" cx="202.37" cy="5.77" r="3.38"/>
				<path id="head_3_" class="st8" d="M195.24,10.92c0,0-2.58,0.84-2.58,2.64s0,10.8,0,10.8s1.08,1.98,3.36,0V15.9
					c0,0,0.54-1.86,1.02,0v27.24c0,0,2.82,3.6,4.14,0V30c0,0,0.9-1.32,1.56-0.06v13.38c0,0,2.34,3,4.2,0V15.84c0,0,1.02-1.56,1.74,0
					l0.24,8.4c0,0,1.38,2.22,2.46,0V13.32c0,0,0.24-1.86-2.4-2.4H195.24z"/>
			</g>
			<g id="avatar_4_">
				<circle id="body_5_" class="st8" cx="172.37" cy="5.77" r="3.38"/>
				<path id="head_4_" class="st8" d="M165.24,10.92c0,0-2.58,0.84-2.58,2.64s0,10.8,0,10.8s1.08,1.98,3.36,0V15.9
					c0,0,0.54-1.86,1.02,0v27.24c0,0,2.82,3.6,4.14,0V30c0,0,0.9-1.32,1.56-0.06v13.38c0,0,2.34,3,4.2,0V15.84c0,0,1.02-1.56,1.74,0
					l0.24,8.4c0,0,1.38,2.22,2.46,0V13.32c0,0,0.24-1.86-2.4-2.4H165.24z"/>
			</g>
			<g id="avatar_5_">
				<circle id="body_6_" class="st8" cx="142.37" cy="5.77" r="3.38"/>
				<path id="head_5_" class="st8" d="M135.24,10.92c0,0-2.58,0.84-2.58,2.64s0,10.8,0,10.8s1.08,1.98,3.36,0V15.9
					c0,0,0.54-1.86,1.02,0v27.24c0,0,2.82,3.6,4.14,0V30c0,0,0.9-1.32,1.56-0.06v13.38c0,0,2.34,3,4.2,0V15.84c0,0,1.02-1.56,1.74,0
					l0.24,8.4c0,0,1.38,2.22,2.46,0V13.32c0,0,0.24-1.86-2.4-2.4H135.24z"/>
			</g>
			<g id="avatar_6_">
				<circle id="body_7_" class="st8" cx="112.37" cy="5.77" r="3.38"/>
				<path id="head_6_" class="st8" d="M105.24,10.92c0,0-2.58,0.84-2.58,2.64s0,10.8,0,10.8s1.08,1.98,3.36,0V15.9
					c0,0,0.54-1.86,1.02,0v27.24c0,0,2.82,3.6,4.14,0V30c0,0,0.9-1.32,1.56-0.06v13.38c0,0,2.34,3,4.2,0V15.84c0,0,1.02-1.56,1.74,0
					l0.24,8.4c0,0,1.38,2.22,2.46,0V13.32c0,0,0.24-1.86-2.4-2.4H105.24z"/>
			</g>
			<g id="avatar_7_">
				<circle id="body_8_" class="st8" cx="82.37" cy="5.77" r="3.38"/>
				<path id="head_7_" class="st8" d="M75.24,10.92c0,0-2.58,0.84-2.58,2.64s0,10.8,0,10.8s1.08,1.98,3.36,0V15.9
					c0,0,0.54-1.86,1.02,0v27.24c0,0,2.82,3.6,4.14,0V30c0,0,0.9-1.32,1.56-0.06v13.38c0,0,2.34,3,4.2,0V15.84c0,0,1.02-1.56,1.74,0
					l0.24,8.4c0,0,1.38,2.22,2.46,0V13.32c0,0,0.24-1.86-2.4-2.4H75.24z"/>
			</g>
			<g id="avatar_8_">
				<circle id="body_9_" class="st8" cx="52.37" cy="6.77" r="3.38"/>
				<path id="head_8_" class="st8" d="M45.24,11.92c0,0-2.58,0.84-2.58,2.64s0,10.8,0,10.8s1.08,1.98,3.36,0V16.9
					c0,0,0.54-1.86,1.02,0v27.24c0,0,2.82,3.6,4.14,0V31c0,0,0.9-1.32,1.56-0.06v13.38c0,0,2.34,3,4.2,0V16.84c0,0,1.02-1.56,1.74,0
					l0.24,8.4c0,0,1.38,2.22,2.46,0V14.32c0,0,0.24-1.86-2.4-2.4H45.24z"/>
			</g>
		</g>
		<g id="white">
			<g id="avatar_1_">
				<circle id="body_1_" class="st9" cx="262.37" cy="5.77" r="3.38"/>
				<path id="head_1_" class="st9" d="M255.24,10.92c0,0-2.58,0.84-2.58,2.64s0,10.8,0,10.8s1.08,1.98,3.36,0V15.9
					c0,0,0.54-1.86,1.02,0v27.24c0,0,2.82,3.6,4.14,0V30c0,0,0.9-1.32,1.56-0.06v13.38c0,0,2.34,3,4.2,0V15.84c0,0,1.02-1.56,1.74,0
					l0.24,8.4c0,0,1.38,2.22,2.46,0V13.32c0,0,0.24-1.86-2.4-2.4H255.24z"/>
			</g>
			<g id="avatar_2_">
				<circle id="body_3_" class="st9" cx="232.37" cy="5.77" r="3.38"/>
				<path id="head_2_" class="st9" d="M225.24,10.92c0,0-2.58,0.84-2.58,2.64s0,10.8,0,10.8s1.08,1.98,3.36,0V15.9
					c0,0,0.54-1.86,1.02,0v27.24c0,0,2.82,3.6,4.14,0V30c0,0,0.9-1.32,1.56-0.06v13.38c0,0,2.34,3,4.2,0V15.84c0,0,1.02-1.56,1.74,0
					l0.24,8.4c0,0,1.38,2.22,2.46,0V13.32c0,0,0.24-1.86-2.4-2.4H225.24z"/>
			</g>
			<g id="avatar_9_">
				<circle id="body_10_" class="st9" cx="292.37" cy="5.77" r="3.38"/>
				<path id="head_9_" class="st9" d="M285.24,10.92c0,0-2.58,0.84-2.58,2.64s0,10.8,0,10.8s1.08,1.98,3.36,0V15.9
					c0,0,0.54-1.86,1.02,0v27.24c0,0,2.82,3.6,4.14,0V30c0,0,0.9-1.32,1.56-0.06v13.38c0,0,2.34,3,4.2,0V15.84c0,0,1.02-1.56,1.74,0
					l0.24,8.4c0,0,1.38,2.22,2.46,0V13.32c0,0,0.24-1.86-2.4-2.4H285.24z"/>
			</g>
		</g>
	</g>
	<path id="inner_x5F_background" class="st8" d="M367,50h-47c-6.6,0-12-5.4-12-12V12c0-6.6,5.4-12,12-12h47c6.6,0,12,5.4,12,12v26
		C379,44.6,373.6,50,367,50z"/>
	<rect x="314.92" y="5.16" class="st10" width="60.96" height="41.76"/>
	<text transform="matrix(1 0 0 1 314.9199 15.1001)"><tspan x="0" y="0" class="st11 st12">7</tspan><tspan x="7.18" y="0" class="st11 st13"> in </tspan><tspan x="18.1" y="0" class="st11 st12">10</tspan><tspan x="32.46" y="0" class="st11 st13"> teens </tspan><tspan x="0" y="10.8" class="st11 st13">were exposed </tspan><tspan x="0" y="21.6" class="st11 st13">to ads </tspan></text>
	<g id="h2">
		<path id="background_1_" class="st14" d="M-3.79-57.11h402c0,0,6.72,29.11-2.24,29.11c-8.96,0-399.76,0-399.76,0
			S-8.27-50.18-3.79-57.11z"/>
		<rect x="39.39" y="-48.68" class="st10" width="388.61" height="20.63"/>
		<text transform="matrix(0.8077 0 0 1 39.3916 -36.8726)" class="st11" style="font-size:16.6367px;">HIGH TEEN EXPOSURE TO E-CIGARETTES ADVERTISING</text>
	</g>
	<rect x="406.48" y="-5.24" class="st10" width="51.52" height="19.24"/>
	<text transform="matrix(1 0 0 1.25 406.48 2.0396)" style="font-family:'ArialRoundedMTBold'; font-size:10px;">Fig.1.2</text>
</g>
<g id="fig_x5F_1.3">
	<g id="Internet_x5F_ads">
		<g id="laptop_x5F_icon">
			<rect x="13" y="100" class="st15" width="19" height="10"/>
			<polygon class="st16" points="32,110 43,114 23,114 14,110 			"/>
		</g>
		<rect x="67" y="100" class="st17" width="117" height="7"/>
		<rect x="67" y="107" class="st18" width="103" height="7"/>
		<rect x="116.76" y="114.64" class="st10" width="33.36" height="7.2"/>
		<text transform="matrix(1 0 0 1 116.7598 118.8999)" class="st11" style="font-size:6px;">35.8%</text>
		<rect x="117.76" y="94.64" class="st10" width="33.36" height="7.2"/>
		<text transform="matrix(1 0 0 1 117.7598 98.8999)" class="st11" style="font-size:6px;">42.9%</text>
		<rect x="10.2" y="90.32" class="st10" width="25.56" height="12.24"/>
		<text transform="matrix(1 0 0 1 10.2002 94.5796)" class="st11" style="font-size:6px;">Internet </text>
	</g>
	<g id="paper_x5F_ads">
		<g id="magazine_x5F_icon">
			<rect x="13" y="143" class="st7" width="23" height="22"/>
			<path class="st19" d="M16.1,148.5c0,0,3.54-1,5.31,0c1.77,1,4.42,0,4.42,0s2.65-2,3.54,0s4.42-1,4.42-1"/>
			<path class="st19" d="M16.1,152.5c0,0,3.54-1,5.31,0c1.77,1,4.42,0,4.42,0s2.65-2,3.54,0s4.42-1,4.42-1"/>
			<path class="st19" d="M16.1,156.5c0,0,3.54-1,5.31,0c1.77,1,4.42,0,4.42,0s2.65-2,3.54,0s4.42-1,4.42-1"/>
			<path class="st19" d="M16.1,160.5c0,0,3.54-1,5.31,0c1.77,1,4.42,0,4.42,0s2.65-2,3.54,0s4.42-1,4.42-1"/>
		</g>
		<rect x="67" y="148" class="st17" width="97" height="7"/>
		<rect x="67" y="155" class="st18" width="88" height="7"/>
		<rect x="114.76" y="142.64" class="st10" width="33.36" height="7.2"/>
		<text transform="matrix(1 0 0 1 114.7598 146.8999)" class="st11" style="font-size:6px;">34.6%</text>
		<rect x="114.76" y="162.64" class="st10" width="33.36" height="7.2"/>
		<text transform="matrix(1 0 0 1 114.7598 166.8999)" class="st11" style="font-size:6px;">25.0%</text>
		<rect x="2" y="133.32" class="st10" width="56" height="13.68"/>
		<text transform="matrix(1 0 0 1 2 137.5796)" class="st11" style="font-size:6px;">Newspaper/magazine </text>
	</g>
	<g id="movies_x5F_ad">
		<g id="movie_x5F_icon">
			<rect x="13" y="204" width="23" height="14"/>
			<rect x="13" y="204" class="st20" width="23" height="4"/>
			<rect x="13" y="198" transform="matrix(0.9905 -0.1372 0.1372 0.9905 -27.218 5.2553)" class="st20" width="23" height="4"/>
		</g>
		<rect x="67" y="207" class="st18" width="100" height="7"/>
		<rect x="67" y="200" class="st17" width="104" height="7"/>
		<rect x="114.76" y="194.64" class="st10" width="33.36" height="7.2"/>
		<text transform="matrix(1 0 0 1 114.7598 198.8999)" class="st11" style="font-size:6px;">38.4%</text>
		<rect x="114.76" y="214.64" class="st10" width="33.36" height="7.2"/>
		<text transform="matrix(1 0 0 1 114.7598 218.8999)" class="st11" style="font-size:6px;">34.1%</text>
		<rect x="14" y="189.32" class="st10" width="26.76" height="12.24"/>
		<text transform="matrix(1 0 0 1 14 193.5796)" class="st11" style="font-size:6px;">TV/Movies</text>
	</g>
	<g id="Retail_x5F_ads">
		<g id="retail_x5F_icon">
			<g id="paper">
				<rect x="14" y="254" class="st7" width="14" height="22"/>
				<path class="st19" d="M15.88,259.5c0,0,2.15-1,3.23,0s2.69,0,2.69,0s1.62-2,2.15,0s2.69-1,2.69-1"/>
				<path class="st19" d="M15.88,263.5c0,0,2.15-1,3.23,0s2.69,0,2.69,0s1.62-2,2.15,0s2.69-1,2.69-1"/>
				<path class="st19" d="M15.88,267.5c0,0,2.15-1,3.23,0s2.69,0,2.69,0s1.62-2,2.15,0s2.69-1,2.69-1"/>
				<path class="st19" d="M15.88,271.5c0,0,2.15-1,3.23,0s2.69,0,2.69,0s1.62-2,2.15,0s2.69-1,2.69-1"/>
			</g>
			<circle class="st21" cx="30" cy="270" r="6"/>
			<rect x="27.65" y="266.5" class="st10" width="7.73" height="7.59"/>
			<text transform="matrix(1 0 0 1 27.6538 272.8896)" class="st11 st13">$</text>
		</g>
		<rect x="66" y="261" class="st17" width="130" height="7"/>
		<rect x="66" y="268" class="st18" width="124" height="7"/>
		<rect x="116.76" y="255.64" class="st10" width="33.36" height="7.2"/>
		<text transform="matrix(1 0 0 1 116.7598 259.8999)" class="st11" style="font-size:6px;">56.3%</text>
		<rect x="116.76" y="275.64" class="st10" width="33.36" height="7.2"/>
		<text transform="matrix(1 0 0 1 116.7598 279.8999)" class="st11" style="font-size:6px;">52.8%</text>
		<rect x="12.2" y="244.32" class="st10" width="25.56" height="12.24"/>
		<text transform="matrix(1 0 0 1 12.2002 248.5796)" class="st11" style="font-size:6px;">Retail Ads</text>
	</g>
	<g id="middle_x5F_school">
		<rect x="241" y="207" class="st18" width="28" height="19"/>
		<rect x="289" y="209.56" class="st10" width="138.24" height="25.92"/>
		<text transform="matrix(1 0 0 1 289 219.5)" class="st11 st12">Middle School students</text>
	</g>
	<g id="high_x5F_school">
		<rect x="241" y="135" class="st17" width="28" height="19"/>
		<rect x="290" y="139.56" class="st10" width="138.24" height="25.92"/>
		<text transform="matrix(1 0 0 1 290 149.5)" class="st11 st12">High School students</text>
	</g>
	<rect x="313.48" y="248.76" class="st10" width="41.04" height="15.84"/>
	<text transform="matrix(1 0 0 1.25 313.48 256.0396)" style="font-family:'ArialRoundedMTBold'; font-size:10px;">Fig.1.3</text>
</g>
<g id="fig_x5F_1.4">
	<g id="h3">
		<path id="info_x5F_bubble" class="st22" d="M62,358c0,0,29-32,53-24s86-16,86-16s73-3,90,5s34,21,23,30c0,0,2,49-49,47
			s-67,26-109,9S61,434,62,358z"/>
		<rect x="78" y="351.48" class="st10" width="252" height="42.64"/>
		<text transform="matrix(1 0 0 1 78 361.4199)"><tspan x="0" y="0" class="st11 st12">Teens are more likely to use E-cigarettes </tspan><tspan x="0" y="16.8" class="st11 st12">than actual Cigarettes</tspan></text>
	</g>
	<g id="chart_x5F_icons">
		<path id="left" class="st23" d="M93.52,437.68c0,0-17.44-14.4,0-28.8s29.32,7.2,28.96,7.56c-0.36,0.36,5.76,17.28-5.04,21.24
			c0,0,9.72,11.16,9.72,13.32s0,58.68,0,58.68H85.77v-57.96C85.77,451.72,84.72,452.8,93.52,437.68z"/>
		<path id="right" class="st24" d="M62.84,451.21c0,0-15.92-11.69,0-23.39s26.77,5.85,26.44,6.14c-0.33,0.29,5.26,14.03-4.6,17.25
			c0,0,8.88,9.06,8.88,10.82c0,1.75,0,47.66,0,47.66H55.77v-47.07C55.77,462.61,54.81,463.49,62.84,451.21z"/>
	</g>
	<g id="chart_x5F_icons_1_">
		<path id="left_1_" class="st23" d="M191.52,437.68c0,0-17.44-14.4,0-28.8s29.32,7.2,28.96,7.56c-0.36,0.36,5.76,17.28-5.04,21.24
			c0,0,9.72,11.16,9.72,13.32s0,58.68,0,58.68h-41.39v-57.96C183.77,451.72,182.72,452.8,191.52,437.68z"/>
		<path id="right_1_" class="st24" d="M160.84,451.21c0,0-15.92-11.69,0-23.39s26.77,5.85,26.44,6.14
			c-0.33,0.29,5.26,14.03-4.6,17.25c0,0,8.88,9.06,8.88,10.82c0,1.75,0,47.66,0,47.66h-37.79v-47.07
			C153.77,462.61,152.81,463.49,160.84,451.21z"/>
	</g>
	<g id="chart_x5F_icons_2_">
		<path id="left_2_" class="st23" d="M289.52,437.68c0,0-17.44-14.4,0-28.8s29.32,7.2,28.96,7.56c-0.36,0.36,5.76,17.28-5.04,21.24
			c0,0,9.72,11.16,9.72,13.32s0,58.68,0,58.68h-41.39v-57.96C281.77,451.72,280.72,452.8,289.52,437.68z"/>
		<path id="right_2_" class="st24" d="M258.84,451.21c0,0-15.92-11.69,0-23.39c15.92-11.69,26.77,5.85,26.44,6.14
			c-0.33,0.29,5.26,14.03-4.6,17.25c0,0,8.88,9.06,8.88,10.82c0,1.75,0,47.66,0,47.66h-37.79v-47.07
			C251.77,462.61,250.81,463.49,258.84,451.21z"/>
	</g>
	<rect id="base" x="56" y="509" class="st25" width="267" height="21"/>
	<circle id="cig_x5F_marker" class="st24" cx="99" cy="556" r="13"/>
	<circle id="e-cig_x5F_marker" class="st23" cx="273" cy="554" r="13"/>
	<rect x="63.68" y="435" class="st10" width="29.32" height="21.6"/>
	<text transform="matrix(1 0 0 1 63.6802 442.0996)" class="st11" style="fill:#F9F9F9; font-size:10px;">3.6%</text>
	<rect x="72.2" y="514.68" class="st10" width="51.8" height="20.32"/>
	<text transform="matrix(1 0 0 1 72.2002 524.6191)"><tspan x="0" y="0" class="st11 st12" style="fill:#F9F9F9;">8</tspan><tspan x="7.18" y="0" class="st11 st13" style="fill:#F9F9F9;">th Grade</tspan></text>
	<rect x="165.2" y="514.68" class="st10" width="51.8" height="20.32"/>
	<text transform="matrix(1 0 0 1 165.2002 524.6191)"><tspan x="0" y="0" class="st11 st12" style="fill:#F9F9F9;">10</tspan><tspan x="14.36" y="0" class="st11 st13" style="fill:#F9F9F9;">th Grade</tspan></text>
	<rect x="264.2" y="513.68" class="st10" width="51.8" height="20.32"/>
	<text transform="matrix(1 0 0 1 264.2002 523.6191)"><tspan x="0" y="0" class="st11 st12" style="fill:#F9F9F9;">12</tspan><tspan x="14.36" y="0" class="st11 st13" style="fill:#F9F9F9;">th Grade</tspan></text>
	<rect x="94.68" y="416" class="st10" width="29.32" height="21.6"/>
	<text transform="matrix(1 0 0 1 94.6802 423.0996)" class="st11" style="fill:#F9F9F9; font-size:10px;">9.5%</text>
	<rect x="162.68" y="435" class="st10" width="29.32" height="21.6"/>
	<text transform="matrix(1 0 0 1 162.6802 442.0996)" class="st11" style="fill:#F9F9F9; font-size:10px;">6.3%</text>
	<rect x="192.68" y="417" class="st10" width="29.32" height="21.6"/>
	<text transform="matrix(1 0 0 1 192.6802 424.0996)" class="st11" style="fill:#F9F9F9; font-size:10px;">14.0%</text>
	<rect x="260.68" y="437" class="st10" width="29.32" height="21.6"/>
	<text transform="matrix(1 0 0 1 260.6802 444.0996)" class="st11" style="fill:#F9F9F9; font-size:10px;">11.4%</text>
	<rect x="290.68" y="417" class="st10" width="29.32" height="21.6"/>
	<text transform="matrix(1 0 0 1 290.6802 424.0996)" class="st11" style="fill:#F9F9F9; font-size:10px;">16.2%</text>
	<rect x="84.08" y="570.6" class="st10" width="43.2" height="21.12"/>
	<text transform="matrix(1 0 0 1 84.0801 576.2793)" class="st11" style="font-size:8px;">cigarette</text>
	<rect x="266.08" y="568.6" class="st10" width="43.2" height="21.12"/>
	<text transform="matrix(1 0 0 1 266.0801 574.2793)" class="st11" style="font-size:8px;">E-cig</text>
	<rect x="-5.52" y="431.76" class="st10" width="41.04" height="15.84"/>
	<text transform="matrix(1 0 0 1.25 -5.52 439.0396)" style="font-family:'ArialRoundedMTBold'; font-size:10px;">Fig.1.4</text>
</g>
<g id="fig_x5F_1.5">
	<g id="h4">
		<path id="background_3_" class="st14" d="M-17.79,607.89h402c0,0,6.72,29.11-2.24,29.11c-8.96,0-399.76,0-399.76,0
			S-22.27,614.82-17.79,607.89z"/>
		<rect x="25.39" y="616.32" class="st10" width="388.61" height="20.63"/>
		<text transform="matrix(0.8077 0 0 1 25.3916 628.1274)" class="st11" style="font-size:16.6367px;">TEEN E-CIG USERS ARE MORE LIKELY TO START SMOKING</text>
	</g>
	<rect x="64.24" y="661.4" class="st10" width="388.8" height="90.72"/>
	<text id="h5" transform="matrix(1 0 0 1 64.2402 674.1807)" class="st11" style="font-size:18px;">START SMOKING AFTER 6 MONTHS</text>
	<g id="bar_x5F_chart">
		<line id="base_1_" class="st26" x1="85" y1="786" x2="264.5" y2="786"/>
		<rect id="e_x5F_cig_x5F_bar" x="86.5" y="697.5" class="st27" width="76" height="88"/>
		<rect id="non_x5F_user" x="186.72" y="758" class="st28" width="75.57" height="27.5"/>
		<rect x="100.44" y="792.68" class="st10" width="68.4" height="27.36"/>
		<text transform="matrix(1 0 0 1 100.4399 801.1992)" class="st11" style="font-size:12px;">E-cig user</text>
		<rect x="199.44" y="791.68" class="st10" width="68.4" height="27.36"/>
		<text transform="matrix(1 0 0 1 199.4399 800.1992)" class="st11" style="font-size:12px;">non- user</text>
	</g>
	<rect x="-3.52" y="705.76" class="st10" width="41.04" height="15.84"/>
	<text transform="matrix(1 0 0 1.25 -3.52 713.0396)" style="font-family:'ArialRoundedMTBold'; font-size:10px;">Fig.1.5</text>
</g>
<g id="fig_x5F_1.6">
	<rect x="-65.48" y="846.56" class="st10" width="581.48" height="84.96"/>
	<text id="h6" transform="matrix(1 0 0 1 -65.48 861.4697)" class="st11" style="font-size:21px;">HOW MANY TEEN USERS KNOW WHAT’S INSIDE THIER E-CIG?</text>
	<g id="bar_x5F_chart_1_">
		<circle id="chart_x5F_background" class="st29" cx="187.04" cy="1032.48" r="133.96"/>
		<path id="nicotine" class="st30" d="M187.15,1032.23l1.5-134.22c0,0,60.79,2.1,95.18,41.5L187.15,1032.23z"/>
		<path id="marijuana" class="st31" d="M187.15,1032.23l123.95-50.7c0,0-16.76-32.14-27.27-42.02L187.15,1032.23z"/>
		<path id="other" class="st32" d="M188.44,1032.87l-103.44-87.1c0,0-5.45,4.71-6.41,7.54L188.44,1032.87z"/>
		<path id="clueless" class="st33" d="M187.04,1032.48l1.61-134.47c0,0-62.87-2.09-103.65,47.76L187.04,1032.48z"/>
	</g>
	<g id="chart_x5F_labels">
		<circle id="e-cig_x5F_marker_1_" class="st33" cx="5" cy="1215" r="13"/>
		<circle id="e-cig_x5F_marker_2_" class="st30" cx="5" cy="1255" r="13"/>
		<circle id="e-cig_x5F_marker_3_" class="st31" cx="5" cy="1295" r="13"/>
		<circle id="e-cig_x5F_marker_4_" class="st32" cx="5" cy="1335" r="13"/>
		<circle id="e-cig_x5F_marker_5_" class="st29" cx="5" cy="1375" r="13"/>
		<rect x="59.6" y="1211" class="st10" width="206.4" height="23.24"/>
		<text transform="matrix(1 0 0 1 59.6001 1219.5195)" class="st11" style="font-size:12px;">CLUELESS </text>
		<rect x="60.6" y="1249" class="st10" width="206.4" height="23.24"/>
		<text transform="matrix(1 0 0 1 60.6001 1257.5195)" class="st11" style="font-size:12px;">NICOTINE </text>
		<rect x="60.6" y="1290" class="st10" width="206.4" height="23.24"/>
		<text transform="matrix(1 0 0 1 60.6001 1298.5195)" class="st11" style="font-size:12px;">MARIJUANA </text>
		<rect x="61.6" y="1329" class="st10" width="206.4" height="23.24"/>
		<text transform="matrix(1 0 0 1 61.6001 1337.5195)" class="st11" style="font-size:12px;">OTHER </text>
		<rect x="61.6" y="1369" class="st10" width="206.4" height="23.24"/>
		<text transform="matrix(1 0 0 1 61.6001 1377.5195)" class="st11" style="font-size:12px;">FLAVOURING </text>
	</g>
	<g id="pointers">
		<line class="st26" x1="17.5" y1="928.5" x2="78.22" y2="951.24"/>
		<line class="st26" x1="56.5" y1="906.5" x2="114.5" y2="918.5"/>
		<line class="st26" x1="358.94" y1="928.66" x2="302.78" y2="961.08"/>
		<line class="st26" x1="264.16" y1="919.28" x2="325.57" y2="898.46"/>
		<line class="st26" x1="-7.56" y1="1072.87" x2="57.28" y2="1072.87"/>
	</g>
	<g id="PERCENTAGES">
		<rect x="-16.6" y="918.52" class="st10" width="32.16" height="21.6"/>
		<text transform="matrix(1 0 0 1 -16.6001 927.0391)" class="st11" style="font-size:12px;">1.3% </text>
		<rect x="-34.6" y="1066.52" class="st10" width="32.16" height="21.6"/>
		<text transform="matrix(1 0 0 1 -34.6001 1075.0391)" class="st11" style="font-size:12px;">66.0% </text>
		<rect x="31.4" y="899.52" class="st10" width="32.16" height="21.6"/>
		<text transform="matrix(1 0 0 1 31.3999 908.0391)" class="st11" style="font-size:12px;">13.7% </text>
		<rect x="361.4" y="920.52" class="st10" width="32.16" height="21.6"/>
		<text transform="matrix(1 0 0 1 361.3999 929.0391)" class="st11" style="font-size:12px;">5.8% </text>
		<rect x="325.4" y="892.52" class="st10" width="32.16" height="21.6"/>
		<text transform="matrix(1 0 0 1 325.3999 901.0391)" class="st11" style="font-size:12px;">13.2% </text>
	</g>
	<rect x="265.4" y="1243.96" class="st10" width="174.24" height="151.2"/>
	<text id="sidenote" transform="matrix(1 0 0 1 265.4004 1256.7402)"><tspan x="0" y="0" class="st11" style="font-size:18px;">manufacturers do not </tspan><tspan x="0" y="21.6" class="st11" style="font-size:18px;">have to report e-cig </tspan><tspan x="0" y="43.2" class="st11" style="font-size:18px;">ingredients, so most </tspan><tspan x="0" y="64.8" class="st11" style="font-size:18px;">users dont actually </tspan><tspan x="0" y="86.4" class="st11" style="font-size:18px;">know what’s in them.</tspan></text>
	<rect x="362.48" y="1086.76" class="st10" width="41.04" height="15.84"/>
	<text transform="matrix(1 0 0 1.25 362.48 1094.0396)" style="font-family:'ArialRoundedMTBold'; font-size:10px;">Fig.1.6</text>
</g>
<rect x="-74" y="1425.24" class="st10" width="587.6" height="34.56"/>
<text id="source" transform="matrix(1 0 0 1.25 -74 1431.792)" class="st13" style="font-family:'ArialRoundedMTBold';">Source: National Institute on Drug Abuse; National Institutes of Health; U.S. Department of Health and Human Services.</text>
</svg>
