<?xml version="1.0" encoding="utf-8"?>
<!-- Generator: Adobe Illustrator 23.0.1, SVG Export Plug-In . SVG Version: 6.00 Build 0)  -->
<svg version="1.1" id="infographic" xmlns="http://www.w3.org/2000/svg" xmlns:xlink="http://www.w3.org/1999/xlink" x="0px"
	 y="0px" viewBox="0 0 274.27 251.55" style="enable-background:new 0 0 274.27 251.55;" xml:space="preserve">
<style type="text/css">
	.st0{fill:#F2EDED;}
	.st1{fill:#808080;}
	.st2{fill:#E50505;}
	.st3{fill:#FFFFFF;stroke:#4D4D4D;stroke-miterlimit:10;}
	.st4{fill:#4D4D4D;}
	.st5{fill:none;stroke:#C1272D;stroke-miterlimit:10;}
	.st6{fill:none;stroke:#999999;stroke-width:0.5;stroke-miterlimit:10;}
	.st7{fill:#C6C1C1;}
	.st8{fill:#6F8BEF;}
	.st9{fill:#EBEDF2;}
	.st10{opacity:0.2;fill:#6F8BEF;}
	.st11{fill:none;stroke:#2E3192;stroke-width:0.25;stroke-miterlimit:10;}
	.st12{fill:#0B0B0C;}
	.st13{fill:#F99223;}
	.st14{fill:#3F2103;}
	.st15{opacity:0.6;fill:none;stroke:#000000;stroke-width:0.25;stroke-miterlimit:10;}
	.st16{fill:#C7B299;}
	.st17{fill:none;stroke:#000000;stroke-width:0.05;stroke-miterlimit:10;}
	.st18{opacity:0.3;fill:#6F8BEF;}
	.st19{fill:none;}
	.st20{font-family:'MyriadPro-Regular';}
	.st21{font-size:14px;}
	.st22{fill:#6A6B6D;}
	.st23{fill:#6E64F9;}
	.st24{fill:#89D2F7;}
	.st25{fill:#F9F9F9;}
	.st26{font-size:10px;}
	.st27{font-size:9px;}
	.st28{font-size:8px;}
	.st29{fill:none;stroke:#000000;stroke-miterlimit:10;}
	.st30{fill:#3FA9F5;}
	.st31{fill:#7373F4;}
	.st32{fill:#D7D7DB;}
	.st33{fill:#2B2BED;}
	.st34{fill:#F4D916;}
	.st35{fill:#F7849D;}
	.st36{fill:#19F219;}
</style>
<rect id="background" x="-169.23" y="-627.45" class="st0" width="612" height="1756"/>
<rect x="-36.13" y="-594.33" class="st19" width="386.88" height="34.56"/>
<text id="title" transform="matrix(1 0 0 1 -36.1299 -579.0408)" style="font-family:'ArialRoundedMTBold'; font-size:21px;">TEENAGERS AND E-CIGARETTES</text>
<rect x="35.27" y="-548.45" class="st19" width="387" height="141"/>
<text id="intro" transform="matrix(1 0 0 1.25 35.27 -539.7131)"><tspan x="0" y="0" style="font-family:'ArialRoundedMTBold'; font-size:12px; letter-spacing:33;">			</tspan><tspan x="108" y="0" style="font-family:'ArialRoundedMTBold'; font-size:12px;">WHAT IS VAPING?</tspan><tspan x="0" y="16.8" style="font-family:'ArialRoundedMTBold'; font-size:11px;">Vaping is the act of inhaling and exhaling the aerosol often referred to as </tspan><tspan x="0" y="33.6" style="font-family:'ArialRoundedMTBold'; font-size:11px;">vapor produced by an e-cigarette or a similar device. It is called vaping </tspan><tspan x="0" y="50.4" style="font-family:'ArialRoundedMTBold'; font-size:11px;">because e-cigarettes do not produce tobacco smoke but an aerosol </tspan><tspan x="0" y="67.2" style="font-family:'ArialRoundedMTBold'; font-size:11px;">often mistaken for wtaer vapour that actually contains fine particles. </tspan><tspan x="0" y="84" style="font-family:'ArialRoundedMTBold'; font-size:11px;">Many of these particles contain varying amounts of toxic chemicals, </tspan><tspan x="0" y="100.8" style="font-family:'ArialRoundedMTBold'; font-size:11px;">which have been linked to heart and respiratory diseases and cancer.</tspan></text>
<g id="Fig.1">
	<g id="e-cigarette">
		<polygon id="cap" class="st1" points="-74.06,-530.27 -61.92,-530.27 -61.92,-519.15 -73.72,-519.15 		"/>
		<path id="body_2_" class="st2" d="M-56.19-419.35v-93.05c0,0-0.67-2.02-4.05-4.05c0,0,2.02-2.7-2.02-2.7s-12.14,0-12.14,0
			s-3.37,0.67-0.67,2.7c0,0-4.72,1.35-4.72,4.05c0,2.7,0,92.38,0,92.38s0,4.05,3.37,4.05h16.86
			C-59.56-415.98-56.86-415.3-56.19-419.35z"/>
		<circle id="power_x5F_button" class="st3" cx="-67.99" cy="-474.3" r="4.05"/>
		<g id="atomizer">
			<g id="little_x5F_holes">
				<circle class="st4" cx="-74.4" cy="-511.05" r="1.35"/>
				<circle class="st4" cx="-61.59" cy="-511.05" r="1.35"/>
			</g>
			<path id="lining" class="st5" d="M-79.45-495.21c0,0,0,2.02,2.02,3.37h18.21c0,0,2.02-0.67,2.7-2.7"/>
		</g>
	</g>
	<g id="lines">
		<line class="st6" x1="-62.23" y1="-524.25" x2="-31.41" y2="-524.25"/>
		<line class="st6" x1="-59.51" y1="-504.31" x2="-28.69" y2="-504.31"/>
		<line class="st6" x1="-57.7" y1="-447.21" x2="-26.88" y2="-447.21"/>
		<line class="st6" x1="-65.86" y1="-473.49" x2="-35.04" y2="-473.49"/>
	</g>
	<g id="text">
		<rect x="-30.12" y="-526.84" class="st19" width="41.77" height="9.79"/>
		<text transform="matrix(1 0 0 1 -30.1241 -522.9832)" class="st20" style="font-size:5.4386px;">Drip Tip </text>
		<rect x="-26.5" y="-449.8" class="st19" width="41.77" height="9.79"/>
		<text transform="matrix(1 0 0 1 -26.4986 -445.9368)" class="st20" style="font-size:5.4386px;">Battery </text>
		<rect x="-28.31" y="-506.9" class="st19" width="41.77" height="9.79"/>
		<text transform="matrix(1 0 0 1 -28.3116 -503.0417)" class="st20" style="font-size:5.4386px;">Atomizer </text>
		<rect x="-34.66" y="-476.08" class="st19" width="41.77" height="9.79"/>
		<text transform="matrix(1 0 0 1 -34.6563 -472.2229)" class="st20" style="font-size:5.4386px;">Power Button</text>
	</g>
	<rect x="-81.25" y="-409.69" class="st19" width="41.04" height="15.84"/>
	<text transform="matrix(1 0 0 1.25 -81.25 -402.4094)" class="st26" style="font-family:'ArialRoundedMTBold';">Fig.1</text>
</g>
<g id="fig_x5F_1.2">
	<path id="background_2_" class="st7" d="M-53.86-317.45h378.01c0,0,6.32,50-2.11,50s-375.91,0-375.91,0S-58.07-305.54-53.86-317.45
		z"/>
	<g id="avatars">
		<g id="blue">
			<g id="avatar">
				<circle id="body" class="st8" cx="-31.36" cy="-311.68" r="3.38"/>
				<path id="head" class="st8" d="M-38.49-306.53c0,0-2.58,0.84-2.58,2.64s0,10.8,0,10.8s1.08,1.98,3.36,0v-8.46
					c0,0,0.54-1.86,1.02,0v27.24c0,0,2.82,3.6,4.14,0v-13.14c0,0,0.9-1.32,1.56-0.06v13.38c0,0,2.34,3,4.2,0v-27.48
					c0,0,1.02-1.56,1.74,0l0.24,8.4c0,0,1.38,2.22,2.46,0v-10.92c0,0,0.24-1.86-2.4-2.4H-38.49z"/>
			</g>
			<g id="avatar_3_">
				<circle id="body_4_" class="st8" cx="146.64" cy="-311.68" r="3.38"/>
				<path id="head_3_" class="st8" d="M139.51-306.53c0,0-2.58,0.84-2.58,2.64s0,10.8,0,10.8s1.08,1.98,3.36,0v-8.46
					c0,0,0.54-1.86,1.02,0v27.24c0,0,2.82,3.6,4.14,0v-13.14c0,0,0.9-1.32,1.56-0.06v13.38c0,0,2.34,3,4.2,0v-27.48
					c0,0,1.02-1.56,1.74,0l0.24,8.4c0,0,1.38,2.22,2.46,0v-10.92c0,0,0.24-1.86-2.4-2.4H139.51z"/>
			</g>
			<g id="avatar_4_">
				<circle id="body_5_" class="st8" cx="116.64" cy="-311.68" r="3.38"/>
				<path id="head_4_" class="st8" d="M109.51-306.53c0,0-2.58,0.84-2.58,2.64s0,10.8,0,10.8s1.08,1.98,3.36,0v-8.46
					c0,0,0.54-1.86,1.02,0v27.24c0,0,2.82,3.6,4.14,0v-13.14c0,0,0.9-1.32,1.56-0.06v13.38c0,0,2.34,3,4.2,0v-27.48
					c0,0,1.02-1.56,1.74,0l0.24,8.4c0,0,1.38,2.22,2.46,0v-10.92c0,0,0.24-1.86-2.4-2.4H109.51z"/>
			</g>
			<g id="avatar_5_">
				<circle id="body_6_" class="st8" cx="86.64" cy="-311.68" r="3.38"/>
				<path id="head_5_" class="st8" d="M79.51-306.53c0,0-2.58,0.84-2.58,2.64s0,10.8,0,10.8s1.08,1.98,3.36,0v-8.46
					c0,0,0.54-1.86,1.02,0v27.24c0,0,2.82,3.6,4.14,0v-13.14c0,0,0.9-1.32,1.56-0.06v13.38c0,0,2.34,3,4.2,0v-27.48
					c0,0,1.02-1.56,1.74,0l0.24,8.4c0,0,1.38,2.22,2.46,0v-10.92c0,0,0.24-1.86-2.4-2.4H79.51z"/>
			</g>
			<g id="avatar_6_">
				<circle id="body_7_" class="st8" cx="56.64" cy="-311.68" r="3.38"/>
				<path id="head_6_" class="st8" d="M49.51-306.53c0,0-2.58,0.84-2.58,2.64s0,10.8,0,10.8s1.08,1.98,3.36,0v-8.46
					c0,0,0.54-1.86,1.02,0v27.24c0,0,2.82,3.6,4.14,0v-13.14c0,0,0.9-1.32,1.56-0.06v13.38c0,0,2.34,3,4.2,0v-27.48
					c0,0,1.02-1.56,1.74,0l0.24,8.4c0,0,1.38,2.22,2.46,0v-10.92c0,0,0.24-1.86-2.4-2.4H49.51z"/>
			</g>
			<g id="avatar_7_">
				<circle id="body_8_" class="st8" cx="26.64" cy="-311.68" r="3.38"/>
				<path id="head_7_" class="st8" d="M19.51-306.53c0,0-2.58,0.84-2.58,2.64s0,10.8,0,10.8s1.08,1.98,3.36,0v-8.46
					c0,0,0.54-1.86,1.02,0v27.24c0,0,2.82,3.6,4.14,0v-13.14c0,0,0.9-1.32,1.56-0.06v13.38c0,0,2.34,3,4.2,0v-27.48
					c0,0,1.02-1.56,1.74,0l0.24,8.4c0,0,1.38,2.22,2.46,0v-10.92c0,0,0.24-1.86-2.4-2.4H19.51z"/>
			</g>
			<g id="avatar_8_">
				<circle id="body_9_" class="st8" cx="-3.36" cy="-310.68" r="3.38"/>
				<path id="head_8_" class="st8" d="M-10.49-305.53c0,0-2.58,0.84-2.58,2.64s0,10.8,0,10.8s1.08,1.98,3.36,0v-8.46
					c0,0,0.54-1.86,1.02,0v27.24c0,0,2.82,3.6,4.14,0v-13.14c0,0,0.9-1.32,1.56-0.06v13.38c0,0,2.34,3,4.2,0v-27.48
					c0,0,1.02-1.56,1.74,0l0.24,8.4c0,0,1.38,2.22,2.46,0v-10.92c0,0,0.24-1.86-2.4-2.4H-10.49z"/>
			</g>
		</g>
		<g id="white">
			<g id="avatar_1_">
				<circle id="body_1_" class="st9" cx="206.64" cy="-311.68" r="3.38"/>
				<path id="head_1_" class="st9" d="M199.51-306.53c0,0-2.58,0.84-2.58,2.64s0,10.8,0,10.8s1.08,1.98,3.36,0v-8.46
					c0,0,0.54-1.86,1.02,0v27.24c0,0,2.82,3.6,4.14,0v-13.14c0,0,0.9-1.32,1.56-0.06v13.38c0,0,2.34,3,4.2,0v-27.48
					c0,0,1.02-1.56,1.74,0l0.24,8.4c0,0,1.38,2.22,2.46,0v-10.92c0,0,0.24-1.86-2.4-2.4H199.51z"/>
			</g>
			<g id="avatar_2_">
				<circle id="body_3_" class="st9" cx="176.64" cy="-311.68" r="3.38"/>
				<path id="head_2_" class="st9" d="M169.51-306.53c0,0-2.58,0.84-2.58,2.64s0,10.8,0,10.8s1.08,1.98,3.36,0v-8.46
					c0,0,0.54-1.86,1.02,0v27.24c0,0,2.82,3.6,4.14,0v-13.14c0,0,0.9-1.32,1.56-0.06v13.38c0,0,2.34,3,4.2,0v-27.48
					c0,0,1.02-1.56,1.74,0l0.24,8.4c0,0,1.38,2.22,2.46,0v-10.92c0,0,0.24-1.86-2.4-2.4H169.51z"/>
			</g>
			<g id="avatar_9_">
				<circle id="body_10_" class="st9" cx="236.64" cy="-311.68" r="3.38"/>
				<path id="head_9_" class="st9" d="M229.51-306.53c0,0-2.58,0.84-2.58,2.64s0,10.8,0,10.8s1.08,1.98,3.36,0v-8.46
					c0,0,0.54-1.86,1.02,0v27.24c0,0,2.82,3.6,4.14,0v-13.14c0,0,0.9-1.32,1.56-0.06v13.38c0,0,2.34,3,4.2,0v-27.48
					c0,0,1.02-1.56,1.74,0l0.24,8.4c0,0,1.38,2.22,2.46,0v-10.92c0,0,0.24-1.86-2.4-2.4H229.51z"/>
			</g>
		</g>
	</g>
	<path id="inner_x5F_background" class="st8" d="M311.27-267.45h-47c-6.6,0-12-5.4-12-12v-26c0-6.6,5.4-12,12-12h47
		c6.6,0,12,5.4,12,12v26C323.27-272.85,317.87-267.45,311.27-267.45z"/>
	<rect x="259.19" y="-312.29" class="st19" width="60.96" height="41.76"/>
	<text transform="matrix(1 0 0 1 259.1899 -302.3489)"><tspan x="0" y="0" class="st20 st21">7</tspan><tspan x="7.18" y="0" class="st20 st27"> in </tspan><tspan x="18.1" y="0" class="st20 st21">10</tspan><tspan x="32.46" y="0" class="st20 st27"> teens </tspan><tspan x="0" y="10.8" class="st20 st27">were exposed </tspan><tspan x="0" y="21.6" class="st20 st27">to ads </tspan></text>
	<g id="h2">
		<path id="background_1_" class="st10" d="M-59.52-374.56h402c0,0,6.72,29.11-2.24,29.11c-8.96,0-399.76,0-399.76,0
			S-64-367.63-59.52-374.56z"/>
		<rect x="-16.34" y="-366.13" class="st19" width="388.61" height="20.63"/>
		<text transform="matrix(0.8077 0 0 1 -16.3384 -354.3215)" class="st20" style="font-size:16.6367px;">HIGH TEEN EXPOSURE TO E-CIGARETTES ADVERTISING</text>
	</g>
	<rect x="350.75" y="-322.69" class="st19" width="51.52" height="19.24"/>
	<text transform="matrix(1 0 0 1.25 350.75 -315.4094)" class="st26" style="font-family:'ArialRoundedMTBold';">Fig.1.2</text>
</g>
<g id="fig_x5F_1.3">
	<g id="Internet_x5F_ads">
		<g id="laptop_x5F_icon">
			<rect x="-42.73" y="-217.45" class="st11" width="19" height="10"/>
			<polygon class="st12" points="-23.73,-207.45 -12.73,-203.45 -32.73,-203.45 -41.73,-207.45 			"/>
		</g>
		<rect x="11.27" y="-217.45" class="st13" width="117" height="7"/>
		<rect x="11.27" y="-210.45" class="st14" width="103" height="7"/>
		<rect x="61.03" y="-202.81" class="st19" width="33.36" height="7.2"/>
		<text transform="matrix(1 0 0 1 61.0297 -198.5491)" class="st20" style="font-size:6px;">35.8%</text>
		<rect x="62.03" y="-222.81" class="st19" width="33.36" height="7.2"/>
		<text transform="matrix(1 0 0 1 62.0297 -218.5491)" class="st20" style="font-size:6px;">42.9%</text>
		<rect x="-45.53" y="-227.13" class="st19" width="25.56" height="12.24"/>
		<text transform="matrix(1 0 0 1 -45.5298 -222.8694)" class="st20" style="font-size:6px;">Internet </text>
	</g>
	<g id="paper_x5F_ads">
		<g id="magazine_x5F_icon">
			<rect x="-42.73" y="-174.45" class="st7" width="23" height="22"/>
			<path class="st15" d="M-39.63-168.95c0,0,3.54-1,5.31,0s4.42,0,4.42,0s2.65-2,3.54,0c0.88,2,4.42-1,4.42-1"/>
			<path class="st15" d="M-39.63-164.95c0,0,3.54-1,5.31,0s4.42,0,4.42,0s2.65-2,3.54,0c0.88,2,4.42-1,4.42-1"/>
			<path class="st15" d="M-39.63-160.95c0,0,3.54-1,5.31,0s4.42,0,4.42,0s2.65-2,3.54,0c0.88,2,4.42-1,4.42-1"/>
			<path class="st15" d="M-39.63-156.95c0,0,3.54-1,5.31,0s4.42,0,4.42,0s2.65-2,3.54,0c0.88,2,4.42-1,4.42-1"/>
		</g>
		<rect x="11.27" y="-169.45" class="st13" width="97" height="7"/>
		<rect x="11.27" y="-162.45" class="st14" width="88" height="7"/>
		<rect x="59.03" y="-174.81" class="st19" width="33.36" height="7.2"/>
		<text transform="matrix(1 0 0 1 59.0297 -170.5491)" class="st20" style="font-size:6px;">34.6%</text>
		<rect x="59.03" y="-154.81" class="st19" width="33.36" height="7.2"/>
		<text transform="matrix(1 0 0 1 59.0297 -150.5491)" class="st20" style="font-size:6px;">25.0%</text>
		<rect x="-53.73" y="-184.13" class="st19" width="56" height="13.68"/>
		<text transform="matrix(1 0 0 1 -53.73 -179.8694)" class="st20" style="font-size:6px;">Newspaper/magazine </text>
	</g>
	<g id="movies_x5F_ad">
		<g id="movie_x5F_icon">
			<rect x="-42.73" y="-113.45" width="23" height="14"/>
			<rect x="-42.73" y="-113.45" class="st16" width="23" height="4"/>
			
				<rect x="-42.73" y="-119.45" transform="matrix(0.9905 -0.1372 0.1372 0.9905 15.8243 -5.3978)" class="st16" width="23" height="4"/>
		</g>
		<rect x="11.27" y="-110.45" class="st14" width="100" height="7"/>
		<rect x="11.27" y="-117.45" class="st13" width="104" height="7"/>
		<rect x="59.03" y="-122.81" class="st19" width="33.36" height="7.2"/>
		<text transform="matrix(1 0 0 1 59.0297 -118.5491)" class="st20" style="font-size:6px;">38.4%</text>
		<rect x="59.03" y="-102.81" class="st19" width="33.36" height="7.2"/>
		<text transform="matrix(1 0 0 1 59.0297 -98.5491)" class="st20" style="font-size:6px;">34.1%</text>
		<rect x="-41.73" y="-128.13" class="st19" width="26.76" height="12.24"/>
		<text transform="matrix(1 0 0 1 -41.73 -123.8694)" class="st20" style="font-size:6px;">TV/Movies</text>
	</g>
	<g id="Retail_x5F_ads">
		<g id="retail_x5F_icon">
			<g id="paper">
				<rect x="-41.73" y="-63.45" class="st7" width="14" height="22"/>
				<path class="st15" d="M-39.85-57.95c0,0,2.15-1,3.23,0s2.69,0,2.69,0s1.62-2,2.15,0s2.69-1,2.69-1"/>
				<path class="st15" d="M-39.85-53.95c0,0,2.15-1,3.23,0s2.69,0,2.69,0s1.62-2,2.15,0s2.69-1,2.69-1"/>
				<path class="st15" d="M-39.85-49.95c0,0,2.15-1,3.23,0s2.69,0,2.69,0s1.62-2,2.15,0s2.69-1,2.69-1"/>
				<path class="st15" d="M-39.85-45.95c0,0,2.15-1,3.23,0s2.69,0,2.69,0s1.62-2,2.15,0s2.69-1,2.69-1"/>
			</g>
			<circle class="st17" cx="-25.73" cy="-47.45" r="6"/>
			<rect x="-28.08" y="-50.95" class="st19" width="7.73" height="7.59"/>
			<text transform="matrix(1 0 0 1 -28.0762 -44.5593)" class="st20 st27">$</text>
		</g>
		<rect x="10.27" y="-56.45" class="st13" width="130" height="7"/>
		<rect x="10.27" y="-49.45" class="st14" width="124" height="7"/>
		<rect x="61.03" y="-61.81" class="st19" width="33.36" height="7.2"/>
		<text transform="matrix(1 0 0 1 61.0297 -57.5491)" class="st20" style="font-size:6px;">56.3%</text>
		<rect x="61.03" y="-41.81" class="st19" width="33.36" height="7.2"/>
		<text transform="matrix(1 0 0 1 61.0297 -37.5491)" class="st20" style="font-size:6px;">52.8%</text>
		<rect x="-43.53" y="-73.13" class="st19" width="25.56" height="12.24"/>
		<text transform="matrix(1 0 0 1 -43.5298 -68.8694)" class="st20" style="font-size:6px;">Retail Ads</text>
	</g>
	<g id="middle_x5F_school">
		<rect x="185.27" y="-110.45" class="st14" width="28" height="19"/>
		<rect x="233.27" y="-107.89" class="st19" width="138.24" height="25.92"/>
		<text transform="matrix(1 0 0 1 233.27 -97.949)" class="st20 st21">Middle School students</text>
	</g>
	<g id="high_x5F_school">
		<rect x="185.27" y="-182.45" class="st13" width="28" height="19"/>
		<rect x="234.27" y="-177.89" class="st19" width="138.24" height="25.92"/>
		<text transform="matrix(1 0 0 1 234.27 -167.949)" class="st20 st21">High School students</text>
	</g>
	<rect x="257.75" y="-68.69" class="st19" width="41.04" height="15.84"/>
	<text transform="matrix(1 0 0 1.25 257.75 -61.4094)" class="st26" style="font-family:'ArialRoundedMTBold';">Fig.1.3</text>
</g>
<g id="fig_x5F_1.4">
	<g id="h3">
		<path id="info_x5F_bubble" class="st18" d="M6.27,40.55c0,0,29-32,53-24s86-16,86-16s73-3,90,5s34,21,23,30c0,0,2,49-49,47
			s-67,26-109,9S5.27,116.55,6.27,40.55z"/>
		<rect x="22.27" y="34.03" class="st19" width="252" height="42.64"/>
		<text transform="matrix(1 0 0 1 22.27 43.9709)"><tspan x="0" y="0" class="st20 st21">Teens are more likely to use E-cigarettes </tspan><tspan x="0" y="16.8" class="st20 st21">than actual Cigarettes</tspan></text>
	</g>
	<g id="chart_x5F_icons">
		<path id="left" class="st22" d="M37.79,120.23c0,0-17.44-14.4,0-28.8s29.32,7.2,28.96,7.56s5.76,17.28-5.04,21.24
			c0,0,9.72,11.16,9.72,13.32c0,2.16,0,58.68,0,58.68H30.04v-57.96C30.04,134.27,28.99,135.35,37.79,120.23z"/>
		<path id="right" class="st23" d="M7.11,133.76c0,0-15.92-11.69,0-23.39s26.77,5.85,26.44,6.14c-0.33,0.29,5.26,14.03-4.6,17.25
			c0,0,8.88,9.06,8.88,10.82c0,1.75,0,47.66,0,47.66H0.04v-47.07C0.04,145.16-0.92,146.04,7.11,133.76z"/>
	</g>
	<g id="chart_x5F_icons_1_">
		<path id="left_1_" class="st22" d="M135.79,120.23c0,0-17.44-14.4,0-28.8s29.32,7.2,28.96,7.56c-0.36,0.36,5.76,17.28-5.04,21.24
			c0,0,9.72,11.16,9.72,13.32c0,2.16,0,58.68,0,58.68h-41.39v-57.96C128.04,134.27,126.99,135.35,135.79,120.23z"/>
		<path id="right_1_" class="st23" d="M105.11,133.76c0,0-15.92-11.69,0-23.39s26.77,5.85,26.44,6.14s5.26,14.03-4.6,17.25
			c0,0,8.88,9.06,8.88,10.82c0,1.75,0,47.66,0,47.66H98.04v-47.07C98.04,145.16,97.08,146.04,105.11,133.76z"/>
	</g>
	<g id="chart_x5F_icons_2_">
		<path id="left_2_" class="st22" d="M233.79,120.23c0,0-17.44-14.4,0-28.8s29.32,7.2,28.96,7.56c-0.36,0.36,5.76,17.28-5.04,21.24
			c0,0,9.72,11.16,9.72,13.32c0,2.16,0,58.68,0,58.68h-41.39v-57.96C226.04,134.27,224.99,135.35,233.79,120.23z"/>
		<path id="right_2_" class="st23" d="M203.11,133.76c0,0-15.92-11.69,0-23.39s26.77,5.85,26.44,6.14s5.26,14.03-4.6,17.25
			c0,0,8.88,9.06,8.88,10.82c0,1.75,0,47.66,0,47.66h-37.79v-47.07C196.04,145.16,195.08,146.04,203.11,133.76z"/>
	</g>
	<rect id="base" x="0.27" y="191.55" class="st24" width="267" height="21"/>
	<circle id="cig_x5F_marker" class="st23" cx="43.27" cy="238.55" r="13"/>
	<circle id="e-cig_x5F_marker" class="st22" cx="217.27" cy="236.55" r="13"/>
	<rect x="7.95" y="117.55" class="st19" width="29.32" height="21.6"/>
	<text transform="matrix(1 0 0 1 7.9502 124.6506)" class="st25 st20 st26">3.6%</text>
	<rect x="16.47" y="197.23" class="st19" width="51.8" height="20.32"/>
	<text transform="matrix(1 0 0 1 16.4702 207.1702)"><tspan x="0" y="0" class="st25 st20 st21">8</tspan><tspan x="7.18" y="0" class="st25 st20 st27">th Grade</tspan></text>
	<rect x="109.47" y="197.23" class="st19" width="51.8" height="20.32"/>
	<text transform="matrix(1 0 0 1 109.4702 207.1702)"><tspan x="0" y="0" class="st25 st20 st21">10</tspan><tspan x="14.36" y="0" class="st25 st20 st27">th Grade</tspan></text>
	<rect x="208.47" y="196.23" class="st19" width="51.8" height="20.32"/>
	<text transform="matrix(1 0 0 1 208.4702 206.1702)"><tspan x="0" y="0" class="st25 st20 st21">12</tspan><tspan x="14.36" y="0" class="st25 st20 st27">th Grade</tspan></text>
	<rect x="38.95" y="98.55" class="st19" width="29.32" height="21.6"/>
	<text transform="matrix(1 0 0 1 38.9502 105.6506)" class="st25 st20 st26">9.5%</text>
	<rect x="106.95" y="117.55" class="st19" width="29.32" height="21.6"/>
	<text transform="matrix(1 0 0 1 106.9501 124.6506)" class="st25 st20 st26">6.3%</text>
	<rect x="136.95" y="99.55" class="st19" width="29.32" height="21.6"/>
	<text transform="matrix(1 0 0 1 136.9501 106.6506)" class="st25 st20 st26">14.0%</text>
	<rect x="204.95" y="119.55" class="st19" width="29.32" height="21.6"/>
	<text transform="matrix(1 0 0 1 204.9501 126.6506)" class="st25 st20 st26">11.4%</text>
	<rect x="234.95" y="99.55" class="st19" width="29.32" height="21.6"/>
	<text transform="matrix(1 0 0 1 234.9501 106.6506)" class="st25 st20 st26">16.2%</text>
	<rect x="28.35" y="253.15" class="st19" width="43.2" height="21.12"/>
	<text transform="matrix(1 0 0 1 28.3501 258.8303)" class="st20 st28">cigarette</text>
	<rect x="210.35" y="251.15" class="st19" width="43.2" height="21.12"/>
	<text transform="matrix(1 0 0 1 210.3501 256.8303)" class="st20 st28">E-cig</text>
	<rect x="-61.25" y="114.31" class="st19" width="41.04" height="15.84"/>
	<text transform="matrix(1 0 0 1.25 -61.25 121.5906)" class="st26" style="font-family:'ArialRoundedMTBold';">Fig.1.4</text>
</g>
<g id="fig_x5F_1.5">
	<g id="h4">
		<path id="background_3_" class="st10" d="M-73.52,290.44h402c0,0,6.72,29.11-2.24,29.11c-8.96,0-399.76,0-399.76,0
			S-78,297.37-73.52,290.44z"/>
		<rect x="-30.34" y="298.87" class="st19" width="388.61" height="20.63"/>
		<text transform="matrix(0.8077 0 0 1 -30.3384 310.6785)" class="st20" style="font-size:16.6367px;">TEEN E-CIG USERS ARE MORE LIKELY TO START SMOKING</text>
	</g>
	<rect x="8.51" y="343.95" class="st19" width="388.8" height="90.72"/>
	<text id="h5" transform="matrix(1 0 0 1 8.5102 356.7317)" class="st20" style="font-size:18px;">START SMOKING AFTER 6 MONTHS</text>
	<g id="bar_x5F_chart">
		<line id="base_1_" class="st29" x1="29.27" y1="468.55" x2="208.77" y2="468.55"/>
		<rect id="e_x5F_cig_x5F_bar" x="30.77" y="380.05" class="st30" width="76" height="88"/>
		<rect id="non_x5F_user" x="130.99" y="440.55" class="st31" width="75.57" height="27.5"/>
		<rect x="44.71" y="475.23" class="st19" width="68.4" height="27.36"/>
		<text transform="matrix(1 0 0 1 44.7099 483.7502)" class="st20" style="font-size:12px;">E-cig user</text>
		<rect x="143.71" y="474.23" class="st19" width="68.4" height="27.36"/>
		<text transform="matrix(1 0 0 1 143.7099 482.7502)" class="st20" style="font-size:12px;">non- user</text>
	</g>
	<rect x="-59.25" y="388.31" class="st19" width="41.04" height="15.84"/>
	<text transform="matrix(1 0 0 1.25 -59.25 395.5906)" class="st26" style="font-family:'ArialRoundedMTBold';">Fig.1.5</text>
</g>
<g id="fig_x5F_1.6">
	<rect x="-121.21" y="529.11" class="st19" width="581.48" height="84.96"/>
	<text id="h6" transform="matrix(1 0 0 1 -121.21 544.0208)" class="st20" style="font-size:21px;">HOW MANY TEEN USERS KNOW WHAT’S INSIDE THIER E-CIG?</text>
	<g id="bar_x5F_chart_1_">
		<circle id="chart_x5F_background" class="st32" cx="131.31" cy="715.03" r="133.96"/>
		<path id="nicotine" class="st33" d="M131.42,714.78l1.5-134.22c0,0,60.79,2.1,95.18,41.5L131.42,714.78z"/>
		<path id="marijuana" class="st34" d="M131.42,714.78l123.95-50.7c0,0-16.76-32.14-27.27-42.02L131.42,714.78z"/>
		<path id="other" class="st35" d="M132.71,715.42l-103.44-87.1c0,0-5.45,4.71-6.41,7.54L132.71,715.42z"/>
		<path id="clueless" class="st36" d="M131.31,715.03l1.61-134.47c0,0-62.87-2.09-103.65,47.76L131.31,715.03z"/>
	</g>
	<g id="chart_x5F_labels">
		<circle id="e-cig_x5F_marker_1_" class="st36" cx="-50.73" cy="897.55" r="13"/>
		<circle id="e-cig_x5F_marker_2_" class="st33" cx="-50.73" cy="937.55" r="13"/>
		<circle id="e-cig_x5F_marker_3_" class="st34" cx="-50.73" cy="977.55" r="13"/>
		<circle id="e-cig_x5F_marker_4_" class="st35" cx="-50.73" cy="1017.55" r="13"/>
		<circle id="e-cig_x5F_marker_5_" class="st32" cx="-50.73" cy="1057.55" r="13"/>
		<rect x="3.87" y="893.55" class="st19" width="206.4" height="23.24"/>
		<text transform="matrix(1 0 0 1 3.8701 902.0706)" class="st20" style="font-size:12px;">CLUELESS </text>
		<rect x="4.87" y="931.55" class="st19" width="206.4" height="23.24"/>
		<text transform="matrix(1 0 0 1 4.8701 940.0706)" class="st20" style="font-size:12px;">NICOTINE </text>
		<rect x="4.87" y="972.55" class="st19" width="206.4" height="23.24"/>
		<text transform="matrix(1 0 0 1 4.8701 981.0706)" class="st20" style="font-size:12px;">MARIJUANA </text>
		<rect x="5.87" y="1011.55" class="st19" width="206.4" height="23.24"/>
		<text transform="matrix(1 0 0 1 5.8701 1020.0706)" class="st20" style="font-size:12px;">OTHER </text>
		<rect x="5.87" y="1051.55" class="st19" width="206.4" height="23.24"/>
		<text transform="matrix(1 0 0 1 5.8701 1060.0706)" class="st20" style="font-size:12px;">FLAVOURING </text>
	</g>
	<g id="pointers">
		<line class="st29" x1="-38.23" y1="611.05" x2="22.49" y2="633.79"/>
		<line class="st29" x1="0.77" y1="589.05" x2="58.77" y2="601.05"/>
		<line class="st29" x1="303.21" y1="611.21" x2="247.05" y2="643.63"/>
		<line class="st29" x1="208.43" y1="601.84" x2="269.84" y2="581.01"/>
		<line class="st29" x1="-63.29" y1="755.42" x2="1.55" y2="755.42"/>
	</g>
	<g id="PERCENTAGES">
		<rect x="-72.33" y="601.07" class="st19" width="32.16" height="21.6"/>
		<text transform="matrix(1 0 0 1 -72.3301 609.5901)" class="st20" style="font-size:12px;">1.3% </text>
		<rect x="-90.33" y="749.07" class="st19" width="32.16" height="21.6"/>
		<text transform="matrix(1 0 0 1 -90.3301 757.5901)" class="st20" style="font-size:12px;">66.0% </text>
		<rect x="-24.33" y="582.07" class="st19" width="32.16" height="21.6"/>
		<text transform="matrix(1 0 0 1 -24.3301 590.5901)" class="st20" style="font-size:12px;">13.7% </text>
		<rect x="305.67" y="603.07" class="st19" width="32.16" height="21.6"/>
		<text transform="matrix(1 0 0 1 305.6699 611.5901)" class="st20" style="font-size:12px;">5.8% </text>
		<rect x="269.67" y="575.07" class="st19" width="32.16" height="21.6"/>
		<text transform="matrix(1 0 0 1 269.6699 583.5901)" class="st20" style="font-size:12px;">13.2% </text>
	</g>
	<rect x="209.67" y="926.51" class="st19" width="174.24" height="151.2"/>
	<text id="sidenote" transform="matrix(1 0 0 1 209.6704 939.2913)"><tspan x="0" y="0" class="st20" style="font-size:18px;">manufacturers do not </tspan><tspan x="0" y="21.6" class="st20" style="font-size:18px;">have to report e-cig </tspan><tspan x="0" y="43.2" class="st20" style="font-size:18px;">ingredients, so most </tspan><tspan x="0" y="64.8" class="st20" style="font-size:18px;">users dont actually </tspan><tspan x="0" y="86.4" class="st20" style="font-size:18px;">know what’s in them.</tspan></text>
	<rect x="306.75" y="769.31" class="st19" width="41.04" height="15.84"/>
	<text transform="matrix(1 0 0 1.25 306.75 776.5906)" class="st26" style="font-family:'ArialRoundedMTBold';">Fig.1.6</text>
</g>
<rect x="-129.73" y="1107.79" class="st19" width="587.6" height="34.56"/>
<text id="source" transform="matrix(1 0 0 1.25 -129.73 1114.343)" class="st27" style="font-family:'ArialRoundedMTBold';">Source: National Institute on Drug Abuse; National Institutes of Health; U.S. Department of Health and Human Services.</text>
</svg>
