<?xml version="1.0" encoding="utf-8"?>
<!-- Generator: Adobe Illustrator 23.0.4, SVG Export Plug-In . SVG Version: 6.00 Build 0)  -->
<svg version="1.1" id="infographic" xmlns="http://www.w3.org/2000/svg" xmlns:xlink="http://www.w3.org/1999/xlink" x="0px"
	 y="0px" viewBox="0 0 95.22 114.34" style="enable-background:new 0 0 95.22 114.34;" xml:space="preserve">
<style type="text/css">
	.st0{fill:#F2EDED;}
	.st1{fill:#808080;}
	.st2{fill:#E50505;}
	.st3{fill:#FFFFFF;stroke:#4D4D4D;stroke-miterlimit:10;}
	.st4{fill:#4D4D4D;}
	.st5{fill:none;stroke:#C1272D;stroke-miterlimit:10;}
	.st6{fill:none;stroke:#999999;stroke-width:0.5;stroke-miterlimit:10;}
	.st7{fill:none;}
	.st8{font-family:'MyriadPro-Regular';}
	.st9{font-size:5.4386px;}
	.st10{fill:#C6C1C1;}
	.st11{fill:#6F8BEF;}
	.st12{fill:#EBEDF2;}
	.st13{opacity:0.2;fill:#6F8BEF;}
	.st14{fill:none;stroke:#2E3192;stroke-width:0.25;stroke-miterlimit:10;}
	.st15{fill:#0B0B0C;}
	.st16{fill:#F99223;}
	.st17{fill:#3F2103;}
	.st18{opacity:0.6;fill:none;stroke:#000000;stroke-width:0.25;stroke-miterlimit:10;}
	.st19{fill:#C7B299;}
	.st20{fill:none;stroke:#000000;stroke-width:0.05;stroke-miterlimit:10;}
	.st21{opacity:0.3;fill:#6F8BEF;}
	.st22{fill:#6A6B6D;}
	.st23{fill:#6E64F9;}
	.st24{fill:#89D2F7;}
	.st25{fill:none;stroke:#000000;stroke-miterlimit:10;}
	.st26{fill:#3FA9F5;}
	.st27{fill:#7373F4;}
	.st28{fill:#D7D7DB;}
	.st29{fill:#2B2BED;}
	.st30{fill:#F4D916;}
	.st31{fill:#F7849D;}
	.st32{fill:#19F219;}
</style>
<rect id="background" x="-89.28" y="-97.18" class="st0" width="612" height="1756"/>
<rect x="43.82" y="-64.06" class="st7" width="386.88" height="34.56"/>
<text id="title" transform="matrix(1 0 0 1 43.8244 -48.7691)" style="font-family:'ArialRoundedMTBold'; font-size:21px;">TEENAGERS AND E-CIGARETTES</text>
<rect x="115.22" y="-18.18" class="st7" width="387" height="141"/>
<text id="intro" transform="matrix(1 0 0 1.25 115.2243 -9.4414)"><tspan x="0" y="0" style="font-family:'ArialRoundedMTBold'; font-size:12px; letter-spacing:33;">			</tspan><tspan x="108" y="0" style="font-family:'ArialRoundedMTBold'; font-size:12px;">WHAT IS VAPING?</tspan><tspan x="0" y="16.8" style="font-family:'ArialRoundedMTBold'; font-size:11px;">Vaping is the act of inhaling and exhaling the aerosol often referred to as </tspan><tspan x="0" y="33.6" style="font-family:'ArialRoundedMTBold'; font-size:11px;">vapor produced by an e-cigarette or a similar device. It is called vaping </tspan><tspan x="0" y="50.4" style="font-family:'ArialRoundedMTBold'; font-size:11px;">because e-cigarettes do not produce tobacco smoke but an aerosol </tspan><tspan x="0" y="67.2" style="font-family:'ArialRoundedMTBold'; font-size:11px;">often mistaken for wtaer vapour that actually contains fine particles. </tspan><tspan x="0" y="84" style="font-family:'ArialRoundedMTBold'; font-size:11px;">Many of these particles contain varying amounts of toxic chemicals, </tspan><tspan x="0" y="100.8" style="font-family:'ArialRoundedMTBold'; font-size:11px;">which have been linked to heart and respiratory diseases and cancer.</tspan></text>
<g id="Fig.1">
	<g id="e-cigarette">
		<polygon id="cap" class="st1" points="5.89,0 18.03,0 18.03,11.13 6.23,11.13 		"/>
		<path id="body_2_" class="st2" d="M23.76,110.92V17.87c0,0-0.67-2.02-4.05-4.05c0,0,2.02-2.7-2.02-2.7s-12.14,0-12.14,0
			s-3.37,0.67-0.67,2.7c0,0-4.72,1.35-4.72,4.05s0,92.38,0,92.38s0,4.05,3.37,4.05h16.86C20.39,114.3,23.09,114.97,23.76,110.92z"/>
		<circle id="power_x5F_button" class="st3" cx="11.96" cy="55.97" r="4.05"/>
		<g id="atomizer">
			<g id="little_x5F_holes">
				<circle class="st4" cx="5.56" cy="19.22" r="1.35"/>
				<circle class="st4" cx="18.37" cy="19.22" r="1.35"/>
			</g>
			<path id="lining" class="st5" d="M0.5,35.06c0,0,0,2.02,2.02,3.37h18.21c0,0,2.02-0.67,2.7-2.7"/>
		</g>
	</g>
	<g id="lines">
		<line class="st6" x1="17.72" y1="6.02" x2="48.54" y2="6.02"/>
		<line class="st6" x1="20.44" y1="25.96" x2="51.26" y2="25.96"/>
		<line class="st6" x1="22.26" y1="83.07" x2="53.08" y2="83.07"/>
		<line class="st6" x1="14.1" y1="56.78" x2="44.92" y2="56.78"/>
	</g>
	<g id="text">
		<rect x="49.83" y="3.43" class="st7" width="41.77" height="9.79"/>
		<text transform="matrix(1 0 0 1 49.8302 7.2886)" class="st8 st9">Drip Tip </text>
		<rect x="53.46" y="80.47" class="st7" width="41.77" height="9.79"/>
		<text transform="matrix(1 0 0 1 53.4557 84.335)" class="st8 st9">Battery </text>
		<rect x="51.64" y="23.37" class="st7" width="41.77" height="9.79"/>
		<text transform="matrix(1 0 0 1 51.6427 27.23)" class="st8 st9">Atomizer </text>
		<rect x="45.3" y="54.19" class="st7" width="41.77" height="9.79"/>
		<text transform="matrix(1 0 0 1 45.298 58.0488)" class="st8 st9">Power Button</text>
	</g>
	<rect x="-1.3" y="120.58" class="st7" width="41.04" height="15.84"/>
	<text transform="matrix(1 0 0 1.25 -1.2957 127.8623)" style="font-family:'ArialRoundedMTBold'; font-size:10px;">Fig.1</text>
</g>
<g id="fig_x5F_1.2">
	<path id="background_2_" class="st10" d="M26.1,212.82h378.01c0,0,6.32,50-2.11,50s-375.91,0-375.91,0S21.88,224.73,26.1,212.82z"
		/>
	<g id="avatars">
		<g id="blue">
			<g id="avatar">
				<circle id="body" class="st11" cx="48.59" cy="218.59" r="3.38"/>
				<path id="head" class="st11" d="M41.46,223.74c0,0-2.58,0.84-2.58,2.64c0,1.8,0,10.8,0,10.8s1.08,1.98,3.36,0v-8.46
					c0,0,0.54-1.86,1.02,0v27.24c0,0,2.82,3.6,4.14,0v-13.14c0,0,0.9-1.32,1.56-0.06v13.38c0,0,2.34,3,4.2,0v-27.48
					c0,0,1.02-1.56,1.74,0l0.24,8.4c0,0,1.38,2.22,2.46,0v-10.92c0,0,0.24-1.86-2.4-2.4H41.46z"/>
			</g>
			<g id="avatar_3_">
				<circle id="body_4_" class="st11" cx="226.59" cy="218.59" r="3.38"/>
				<path id="head_3_" class="st11" d="M219.46,223.74c0,0-2.58,0.84-2.58,2.64c0,1.8,0,10.8,0,10.8s1.08,1.98,3.36,0v-8.46
					c0,0,0.54-1.86,1.02,0v27.24c0,0,2.82,3.6,4.14,0v-13.14c0,0,0.9-1.32,1.56-0.06v13.38c0,0,2.34,3,4.2,0v-27.48
					c0,0,1.02-1.56,1.74,0l0.24,8.4c0,0,1.38,2.22,2.46,0v-10.92c0,0,0.24-1.86-2.4-2.4H219.46z"/>
			</g>
			<g id="avatar_4_">
				<circle id="body_5_" class="st11" cx="196.59" cy="218.59" r="3.38"/>
				<path id="head_4_" class="st11" d="M189.46,223.74c0,0-2.58,0.84-2.58,2.64c0,1.8,0,10.8,0,10.8s1.08,1.98,3.36,0v-8.46
					c0,0,0.54-1.86,1.02,0v27.24c0,0,2.82,3.6,4.14,0v-13.14c0,0,0.9-1.32,1.56-0.06v13.38c0,0,2.34,3,4.2,0v-27.48
					c0,0,1.02-1.56,1.74,0l0.24,8.4c0,0,1.38,2.22,2.46,0v-10.92c0,0,0.24-1.86-2.4-2.4H189.46z"/>
			</g>
			<g id="avatar_5_">
				<circle id="body_6_" class="st11" cx="166.59" cy="218.59" r="3.38"/>
				<path id="head_5_" class="st11" d="M159.46,223.74c0,0-2.58,0.84-2.58,2.64c0,1.8,0,10.8,0,10.8s1.08,1.98,3.36,0v-8.46
					c0,0,0.54-1.86,1.02,0v27.24c0,0,2.82,3.6,4.14,0v-13.14c0,0,0.9-1.32,1.56-0.06v13.38c0,0,2.34,3,4.2,0v-27.48
					c0,0,1.02-1.56,1.74,0l0.24,8.4c0,0,1.38,2.22,2.46,0v-10.92c0,0,0.24-1.86-2.4-2.4H159.46z"/>
			</g>
			<g id="avatar_6_">
				<circle id="body_7_" class="st11" cx="136.59" cy="218.59" r="3.38"/>
				<path id="head_6_" class="st11" d="M129.46,223.74c0,0-2.58,0.84-2.58,2.64c0,1.8,0,10.8,0,10.8s1.08,1.98,3.36,0v-8.46
					c0,0,0.54-1.86,1.02,0v27.24c0,0,2.82,3.6,4.14,0v-13.14c0,0,0.9-1.32,1.56-0.06v13.38c0,0,2.34,3,4.2,0v-27.48
					c0,0,1.02-1.56,1.74,0l0.24,8.4c0,0,1.38,2.22,2.46,0v-10.92c0,0,0.24-1.86-2.4-2.4H129.46z"/>
			</g>
			<g id="avatar_7_">
				<circle id="body_8_" class="st11" cx="106.59" cy="218.59" r="3.38"/>
				<path id="head_7_" class="st11" d="M99.46,223.74c0,0-2.58,0.84-2.58,2.64c0,1.8,0,10.8,0,10.8s1.08,1.98,3.36,0v-8.46
					c0,0,0.54-1.86,1.02,0v27.24c0,0,2.82,3.6,4.14,0v-13.14c0,0,0.9-1.32,1.56-0.06v13.38c0,0,2.34,3,4.2,0v-27.48
					c0,0,1.02-1.56,1.74,0l0.24,8.4c0,0,1.38,2.22,2.46,0v-10.92c0,0,0.24-1.86-2.4-2.4H99.46z"/>
			</g>
			<g id="avatar_8_">
				<circle id="body_9_" class="st11" cx="76.59" cy="219.59" r="3.38"/>
				<path id="head_8_" class="st11" d="M69.46,224.74c0,0-2.58,0.84-2.58,2.64c0,1.8,0,10.8,0,10.8s1.08,1.98,3.36,0v-8.46
					c0,0,0.54-1.86,1.02,0v27.24c0,0,2.82,3.6,4.14,0v-13.14c0,0,0.9-1.32,1.56-0.06v13.38c0,0,2.34,3,4.2,0v-27.48
					c0,0,1.02-1.56,1.74,0l0.24,8.4c0,0,1.38,2.22,2.46,0v-10.92c0,0,0.24-1.86-2.4-2.4H69.46z"/>
			</g>
		</g>
		<g id="white">
			<g id="avatar_1_">
				<circle id="body_1_" class="st12" cx="286.59" cy="218.59" r="3.38"/>
				<path id="head_1_" class="st12" d="M279.46,223.74c0,0-2.58,0.84-2.58,2.64c0,1.8,0,10.8,0,10.8s1.08,1.98,3.36,0v-8.46
					c0,0,0.54-1.86,1.02,0v27.24c0,0,2.82,3.6,4.14,0v-13.14c0,0,0.9-1.32,1.56-0.06v13.38c0,0,2.34,3,4.2,0v-27.48
					c0,0,1.02-1.56,1.74,0l0.24,8.4c0,0,1.38,2.22,2.46,0v-10.92c0,0,0.24-1.86-2.4-2.4H279.46z"/>
			</g>
			<g id="avatar_2_">
				<circle id="body_3_" class="st12" cx="256.59" cy="218.59" r="3.38"/>
				<path id="head_2_" class="st12" d="M249.46,223.74c0,0-2.58,0.84-2.58,2.64c0,1.8,0,10.8,0,10.8s1.08,1.98,3.36,0v-8.46
					c0,0,0.54-1.86,1.02,0v27.24c0,0,2.82,3.6,4.14,0v-13.14c0,0,0.9-1.32,1.56-0.06v13.38c0,0,2.34,3,4.2,0v-27.48
					c0,0,1.02-1.56,1.74,0l0.24,8.4c0,0,1.38,2.22,2.46,0v-10.92c0,0,0.24-1.86-2.4-2.4H249.46z"/>
			</g>
			<g id="avatar_9_">
				<circle id="body_10_" class="st12" cx="316.59" cy="218.59" r="3.38"/>
				<path id="head_9_" class="st12" d="M309.46,223.74c0,0-2.58,0.84-2.58,2.64c0,1.8,0,10.8,0,10.8s1.08,1.98,3.36,0v-8.46
					c0,0,0.54-1.86,1.02,0v27.24c0,0,2.82,3.6,4.14,0v-13.14c0,0,0.9-1.32,1.56-0.06v13.38c0,0,2.34,3,4.2,0v-27.48
					c0,0,1.02-1.56,1.74,0l0.24,8.4c0,0,1.38,2.22,2.46,0v-10.92c0,0,0.24-1.86-2.4-2.4H309.46z"/>
			</g>
		</g>
	</g>
	<path id="inner_x5F_background" class="st11" d="M391.22,262.82h-47c-6.6,0-12-5.4-12-12v-26c0-6.6,5.4-12,12-12h47
		c6.6,0,12,5.4,12,12v26C403.22,257.42,397.82,262.82,391.22,262.82z"/>
	<rect x="339.14" y="217.98" class="st7" width="60.96" height="41.76"/>
	<text transform="matrix(1 0 0 1 339.1442 227.9228)"><tspan x="0" y="0" class="st8" style="font-size:14px;">7</tspan><tspan x="7.18" y="0" class="st8" style="font-size:9px;"> in </tspan><tspan x="18.1" y="0" class="st8" style="font-size:14px;">10</tspan><tspan x="32.46" y="0" class="st8" style="font-size:9px;"> teens </tspan><tspan x="0" y="10.8" class="st8" style="font-size:9px;">were exposed </tspan><tspan x="0" y="21.6" class="st8" style="font-size:9px;">to ads </tspan></text>
	<g id="h2">
		<path id="background_1_" class="st13" d="M20.44,155.71h402c0,0,6.72,29.11-2.24,29.11c-8.96,0-399.76,0-399.76,0
			S15.96,162.64,20.44,155.71z"/>
		<rect x="63.62" y="164.14" class="st7" width="388.61" height="20.63"/>
		<text transform="matrix(0.8077 0 0 1 63.6159 175.9502)" class="st8" style="font-size:16.6367px;">HIGH TEEN EXPOSURE TO E-CIGARETTES ADVERTISING</text>
	</g>
	<rect x="430.7" y="207.58" class="st7" width="51.52" height="19.24"/>
	<text transform="matrix(1 0 0 1.25 430.7043 214.8623)" style="font-family:'ArialRoundedMTBold'; font-size:10px;">Fig.1.2</text>
</g>
<g id="fig_x5F_1.3">
	<g id="Internet_x5F_ads">
		<g id="laptop_x5F_icon">
			<rect x="37.22" y="312.82" class="st14" width="19" height="10"/>
			<polygon class="st15" points="56.22,322.82 67.22,326.82 47.22,326.82 38.22,322.82 			"/>
		</g>
		<rect x="91.22" y="312.82" class="st16" width="117" height="7"/>
		<rect x="91.22" y="319.82" class="st17" width="103" height="7"/>
		<rect x="140.98" y="327.46" class="st7" width="33.36" height="7.2"/>
		<text transform="matrix(1 0 0 1 140.9841 331.7227)" class="st8" style="font-size:6px;">35.8%</text>
		<rect x="141.98" y="307.46" class="st7" width="33.36" height="7.2"/>
		<text transform="matrix(1 0 0 1 141.9841 311.7227)" class="st8" style="font-size:6px;">42.9%</text>
		<rect x="34.42" y="303.14" class="st7" width="25.56" height="12.24"/>
		<text transform="matrix(1 0 0 1 34.4245 307.4023)" class="st8" style="font-size:6px;">Internet </text>
	</g>
	<g id="paper_x5F_ads">
		<g id="magazine_x5F_icon">
			<rect x="37.22" y="355.82" class="st10" width="23" height="22"/>
			<path class="st18" d="M40.32,361.32c0,0,3.54-1,5.31,0c1.77,1,4.42,0,4.42,0s2.65-2,3.54,0c0.88,2,4.42-1,4.42-1"/>
			<path class="st18" d="M40.32,365.32c0,0,3.54-1,5.31,0c1.77,1,4.42,0,4.42,0s2.65-2,3.54,0c0.88,2,4.42-1,4.42-1"/>
			<path class="st18" d="M40.32,369.32c0,0,3.54-1,5.31,0c1.77,1,4.42,0,4.42,0s2.65-2,3.54,0c0.88,2,4.42-1,4.42-1"/>
			<path class="st18" d="M40.32,373.32c0,0,3.54-1,5.31,0c1.77,1,4.42,0,4.42,0s2.65-2,3.54,0c0.88,2,4.42-1,4.42-1"/>
		</g>
		<rect x="91.22" y="360.82" class="st16" width="97" height="7"/>
		<rect x="91.22" y="367.82" class="st17" width="88" height="7"/>
		<rect x="138.98" y="355.46" class="st7" width="33.36" height="7.2"/>
		<text transform="matrix(1 0 0 1 138.9841 359.7227)" class="st8" style="font-size:6px;">34.6%</text>
		<rect x="138.98" y="375.46" class="st7" width="33.36" height="7.2"/>
		<text transform="matrix(1 0 0 1 138.9841 379.7227)" class="st8" style="font-size:6px;">25.0%</text>
		<rect x="26.22" y="346.14" class="st7" width="56" height="13.68"/>
		<text transform="matrix(1 0 0 1 26.2243 350.4023)" class="st8" style="font-size:6px;">Newspaper/magazine </text>
	</g>
	<g id="movies_x5F_ad">
		<g id="movie_x5F_icon">
			<rect x="37.22" y="416.82" width="23" height="14"/>
			<rect x="37.22" y="416.82" class="st19" width="23" height="4"/>
			
				<rect x="37.22" y="410.82" transform="matrix(0.9905 -0.1372 0.1372 0.9905 -56.1986 10.5941)" class="st19" width="23" height="4"/>
		</g>
		<rect x="91.22" y="419.82" class="st17" width="100" height="7"/>
		<rect x="91.22" y="412.82" class="st16" width="104" height="7"/>
		<rect x="138.98" y="407.46" class="st7" width="33.36" height="7.2"/>
		<text transform="matrix(1 0 0 1 138.9841 411.7227)" class="st8" style="font-size:6px;">38.4%</text>
		<rect x="138.98" y="427.46" class="st7" width="33.36" height="7.2"/>
		<text transform="matrix(1 0 0 1 138.9841 431.7227)" class="st8" style="font-size:6px;">34.1%</text>
		<rect x="38.22" y="402.14" class="st7" width="26.76" height="12.24"/>
		<text transform="matrix(1 0 0 1 38.2243 406.4023)" class="st8" style="font-size:6px;">TV/Movies</text>
	</g>
	<g id="Retail_x5F_ads">
		<g id="retail_x5F_icon">
			<g id="paper">
				<rect x="38.22" y="466.82" class="st10" width="14" height="22"/>
				<path class="st18" d="M40.11,472.32c0,0,2.15-1,3.23,0s2.69,0,2.69,0s1.62-2,2.15,0c0.54,2,2.69-1,2.69-1"/>
				<path class="st18" d="M40.11,476.32c0,0,2.15-1,3.23,0s2.69,0,2.69,0s1.62-2,2.15,0c0.54,2,2.69-1,2.69-1"/>
				<path class="st18" d="M40.11,480.32c0,0,2.15-1,3.23,0s2.69,0,2.69,0s1.62-2,2.15,0c0.54,2,2.69-1,2.69-1"/>
				<path class="st18" d="M40.11,484.32c0,0,2.15-1,3.23,0s2.69,0,2.69,0s1.62-2,2.15,0c0.54,2,2.69-1,2.69-1"/>
			</g>
			<circle class="st20" cx="54.22" cy="482.82" r="6"/>
			<rect x="51.88" y="479.32" class="st7" width="7.73" height="7.59"/>
			<text transform="matrix(1 0 0 1 51.8781 485.7124)" class="st8" style="font-size:9px;">$</text>
		</g>
		<rect x="90.22" y="473.82" class="st16" width="130" height="7"/>
		<rect x="90.22" y="480.82" class="st17" width="124" height="7"/>
		<rect x="140.98" y="468.46" class="st7" width="33.36" height="7.2"/>
		<text transform="matrix(1 0 0 1 140.9841 472.7227)" class="st8" style="font-size:6px;">56.3%</text>
		<rect x="140.98" y="488.46" class="st7" width="33.36" height="7.2"/>
		<text transform="matrix(1 0 0 1 140.9841 492.7227)" class="st8" style="font-size:6px;">52.8%</text>
		<rect x="36.42" y="457.14" class="st7" width="25.56" height="12.24"/>
		<text transform="matrix(1 0 0 1 36.4245 461.4023)" class="st8" style="font-size:6px;">Retail Ads</text>
	</g>
	<g id="middle_x5F_school">
		<rect x="265.22" y="419.82" class="st17" width="28" height="19"/>
		<rect x="313.22" y="422.38" class="st7" width="138.24" height="25.92"/>
		<text transform="matrix(1 0 0 1 313.2243 432.3228)" class="st8" style="font-size:14px;">Middle School students</text>
	</g>
	<g id="high_x5F_school">
		<rect x="265.22" y="347.82" class="st16" width="28" height="19"/>
		<rect x="314.22" y="352.38" class="st7" width="138.24" height="25.92"/>
		<text transform="matrix(1 0 0 1 314.2243 362.3228)" class="st8" style="font-size:14px;">High School students</text>
	</g>
	<rect x="337.7" y="461.58" class="st7" width="41.04" height="15.84"/>
	<text transform="matrix(1 0 0 1.25 337.7043 468.8623)" style="font-family:'ArialRoundedMTBold'; font-size:10px;">Fig.1.3</text>
</g>
<g id="fig_x5F_1.4">
	<g id="h3">
		<path id="info_x5F_bubble" class="st21" d="M86.22,570.82c0,0,29-32,53-24s86-16,86-16s73-3,90,5s34,21,23,30c0,0,2,49-49,47
			s-67,26-109,9S85.22,646.82,86.22,570.82z"/>
		<rect x="102.22" y="564.3" class="st7" width="252" height="42.64"/>
		<text transform="matrix(1 0 0 1 102.2243 574.2427)"><tspan x="0" y="0" class="st8" style="font-size:14px;">Teens are more likely to use E-cigarettes </tspan><tspan x="0" y="16.8" class="st8" style="font-size:14px;">than actual Cigarettes</tspan></text>
	</g>
	<g id="chart_x5F_icons">
		<path id="left" class="st22" d="M117.74,650.5c0,0-17.44-14.4,0-28.8c17.44-14.4,29.32,7.2,28.96,7.56s5.76,17.28-5.04,21.24
			c0,0,9.72,11.16,9.72,13.32c0,2.16,0,58.68,0,58.68h-41.39v-57.96C109.99,664.54,108.94,665.62,117.74,650.5z"/>
		<path id="right" class="st23" d="M87.07,664.03c0,0-15.92-11.69,0-23.39c15.92-11.69,26.77,5.85,26.44,6.14s5.26,14.03-4.6,17.25
			c0,0,8.88,9.06,8.88,10.82c0,1.75,0,47.66,0,47.66H79.99v-47.07C79.99,675.43,79.03,676.31,87.07,664.03z"/>
	</g>
	<g id="chart_x5F_icons_1_">
		<path id="left_1_" class="st22" d="M215.74,650.5c0,0-17.44-14.4,0-28.8c17.44-14.4,29.32,7.2,28.96,7.56s5.76,17.28-5.04,21.24
			c0,0,9.72,11.16,9.72,13.32c0,2.16,0,58.68,0,58.68h-41.39v-57.96C207.99,664.54,206.94,665.62,215.74,650.5z"/>
		<path id="right_1_" class="st23" d="M185.07,664.03c0,0-15.92-11.69,0-23.39c15.92-11.69,26.77,5.85,26.44,6.14
			s5.26,14.03-4.6,17.25c0,0,8.88,9.06,8.88,10.82c0,1.75,0,47.66,0,47.66h-37.79v-47.07C177.99,675.43,177.03,676.31,185.07,664.03
			z"/>
	</g>
	<g id="chart_x5F_icons_2_">
		<path id="left_2_" class="st22" d="M313.74,650.5c0,0-17.44-14.4,0-28.8c17.44-14.4,29.32,7.2,28.96,7.56
			c-0.36,0.36,5.76,17.28-5.04,21.24c0,0,9.72,11.16,9.72,13.32c0,2.16,0,58.68,0,58.68h-41.39v-57.96
			C305.99,664.54,304.94,665.62,313.74,650.5z"/>
		<path id="right_2_" class="st23" d="M283.07,664.03c0,0-15.92-11.69,0-23.39c15.92-11.69,26.77,5.85,26.44,6.14
			c-0.33,0.29,5.26,14.03-4.6,17.25c0,0,8.88,9.06,8.88,10.82c0,1.75,0,47.66,0,47.66h-37.79v-47.07
			C275.99,675.43,275.03,676.31,283.07,664.03z"/>
	</g>
	<rect id="base" x="80.22" y="721.82" class="st24" width="267" height="21"/>
	<circle id="cig_x5F_marker" class="st23" cx="123.22" cy="768.82" r="13"/>
	<circle id="e-cig_x5F_marker" class="st22" cx="297.22" cy="766.82" r="13"/>
	<rect x="87.9" y="647.82" class="st7" width="29.32" height="21.6"/>
	<text transform="matrix(1 0 0 1 87.9045 654.9224)" class="st8" style="fill:#F9F9F9; font-size:10px;">3.6%</text>
	<rect x="96.42" y="727.5" class="st7" width="51.8" height="20.32"/>
	<text transform="matrix(1 0 0 1 96.4245 737.4419)"><tspan x="0" y="0" class="st8" style="fill:#F9F9F9; font-size:14px;">8</tspan><tspan x="7.18" y="0" class="st8" style="fill:#F9F9F9; font-size:9px;">th Grade</tspan></text>
	<rect x="189.42" y="727.5" class="st7" width="51.8" height="20.32"/>
	<text transform="matrix(1 0 0 1 189.4245 737.4419)"><tspan x="0" y="0" class="st8" style="fill:#F9F9F9; font-size:14px;">10</tspan><tspan x="14.36" y="0" class="st8" style="fill:#F9F9F9; font-size:9px;">th Grade</tspan></text>
	<rect x="288.42" y="726.5" class="st7" width="51.8" height="20.32"/>
	<text transform="matrix(1 0 0 1 288.4245 736.4419)"><tspan x="0" y="0" class="st8" style="fill:#F9F9F9; font-size:14px;">12</tspan><tspan x="14.36" y="0" class="st8" style="fill:#F9F9F9; font-size:9px;">th Grade</tspan></text>
	<rect x="118.9" y="628.82" class="st7" width="29.32" height="21.6"/>
	<text transform="matrix(1 0 0 1 118.9045 635.9224)" class="st8" style="fill:#F9F9F9; font-size:10px;">9.5%</text>
	<rect x="186.9" y="647.82" class="st7" width="29.32" height="21.6"/>
	<text transform="matrix(1 0 0 1 186.9045 654.9224)" class="st8" style="fill:#F9F9F9; font-size:10px;">6.3%</text>
	<rect x="216.9" y="629.82" class="st7" width="29.32" height="21.6"/>
	<text transform="matrix(1 0 0 1 216.9045 636.9224)" class="st8" style="fill:#F9F9F9; font-size:10px;">14.0%</text>
	<rect x="284.9" y="649.82" class="st7" width="29.32" height="21.6"/>
	<text transform="matrix(1 0 0 1 284.9044 656.9224)" class="st8" style="fill:#F9F9F9; font-size:10px;">11.4%</text>
	<rect x="314.9" y="629.82" class="st7" width="29.32" height="21.6"/>
	<text transform="matrix(1 0 0 1 314.9044 636.9224)" class="st8" style="fill:#F9F9F9; font-size:10px;">16.2%</text>
	<rect x="108.3" y="783.42" class="st7" width="43.2" height="21.12"/>
	<text transform="matrix(1 0 0 1 108.3044 789.1021)" class="st8" style="font-size:8px;">cigarette</text>
	<rect x="290.3" y="781.42" class="st7" width="43.2" height="21.12"/>
	<text transform="matrix(1 0 0 1 290.3044 787.1021)" class="st8" style="font-size:8px;">E-cig</text>
	<rect x="18.7" y="644.58" class="st7" width="41.04" height="15.84"/>
	<text transform="matrix(1 0 0 1.25 18.7043 651.8623)" style="font-family:'ArialRoundedMTBold'; font-size:10px;">Fig.1.4</text>
</g>
<g id="fig_x5F_1.5">
	<g id="h4">
		<path id="background_3_" class="st13" d="M6.44,820.71h402c0,0,6.72,29.11-2.24,29.11c-8.96,0-399.76,0-399.76,0
			S1.96,827.64,6.44,820.71z"/>
		<rect x="49.62" y="829.14" class="st7" width="388.61" height="20.63"/>
		<text transform="matrix(0.8077 0 0 1 49.6159 840.9502)" class="st8" style="font-size:16.6367px;">TEEN E-CIG USERS ARE MORE LIKELY TO START SMOKING</text>
	</g>
	<rect x="88.46" y="874.22" class="st7" width="388.8" height="90.72"/>
	<text id="h5" transform="matrix(1 0 0 1 88.4645 887.0034)" class="st8" style="font-size:18px;">START SMOKING AFTER 6 MONTHS</text>
	<g id="bar_x5F_chart">
		<line id="base_1_" class="st25" x1="109.22" y1="998.82" x2="288.72" y2="998.82"/>
		<rect id="e_x5F_cig_x5F_bar" x="110.72" y="910.32" class="st26" width="76" height="88"/>
		<rect id="non_x5F_user" x="210.94" y="970.82" class="st27" width="75.57" height="27.5"/>
		<rect x="124.66" y="1005.5" class="st7" width="68.4" height="27.36"/>
		<text transform="matrix(1 0 0 1 124.6642 1014.022)" class="st8" style="font-size:12px;">E-cig user</text>
		<rect x="223.66" y="1004.5" class="st7" width="68.4" height="27.36"/>
		<text transform="matrix(1 0 0 1 223.6642 1013.022)" class="st8" style="font-size:12px;">non- user</text>
	</g>
	<rect x="20.7" y="918.58" class="st7" width="41.04" height="15.84"/>
	<text transform="matrix(1 0 0 1.25 20.7043 925.8623)" style="font-family:'ArialRoundedMTBold'; font-size:10px;">Fig.1.5</text>
</g>
<g id="fig_x5F_1.6">
	<rect x="-41.26" y="1059.38" class="st7" width="581.48" height="84.96"/>
	<text id="h6" transform="matrix(1 0 0 1 -41.2557 1074.2925)" class="st8" style="font-size:21px;">HOW MANY TEEN USERS KNOW WHAT’S INSIDE THIER E-CIG?</text>
	<g id="bar_x5F_chart_1_">
		<circle id="chart_x5F_background" class="st28" cx="211.26" cy="1245.3" r="133.96"/>
		<path id="nicotine" class="st29" d="M211.37,1245.05l1.5-134.22c0,0,60.79,2.11,95.18,41.5L211.37,1245.05z"/>
		<path id="marijuana" class="st30" d="M211.37,1245.05l123.95-50.7c0,0-16.76-32.14-27.27-42.02L211.37,1245.05z"/>
		<path id="other" class="st31" d="M212.66,1245.7l-103.44-87.1c0,0-5.45,4.71-6.41,7.54L212.66,1245.7z"/>
		<path id="clueless" class="st32" d="M211.26,1245.3l1.61-134.47c0,0-62.87-2.09-103.65,47.76L211.26,1245.3z"/>
	</g>
	<g id="chart_x5F_labels">
		<circle id="e-cig_x5F_marker_1_" class="st32" cx="29.22" cy="1427.82" r="13"/>
		<circle id="e-cig_x5F_marker_2_" class="st29" cx="29.22" cy="1467.82" r="13"/>
		<circle id="e-cig_x5F_marker_3_" class="st30" cx="29.22" cy="1507.82" r="13"/>
		<circle id="e-cig_x5F_marker_4_" class="st31" cx="29.22" cy="1547.82" r="13"/>
		<circle id="e-cig_x5F_marker_5_" class="st28" cx="29.22" cy="1587.82" r="13"/>
		<rect x="83.82" y="1423.82" class="st7" width="206.4" height="23.24"/>
		<text transform="matrix(1 0 0 1 83.8244 1432.3423)" class="st8" style="font-size:12px;">CLUELESS </text>
		<rect x="84.82" y="1461.82" class="st7" width="206.4" height="23.24"/>
		<text transform="matrix(1 0 0 1 84.8244 1470.3423)" class="st8" style="font-size:12px;">NICOTINE </text>
		<rect x="84.82" y="1502.82" class="st7" width="206.4" height="23.24"/>
		<text transform="matrix(1 0 0 1 84.8244 1511.3423)" class="st8" style="font-size:12px;">MARIJUANA </text>
		<rect x="85.82" y="1541.82" class="st7" width="206.4" height="23.24"/>
		<text transform="matrix(1 0 0 1 85.8244 1550.3423)" class="st8" style="font-size:12px;">OTHER </text>
		<rect x="85.82" y="1581.82" class="st7" width="206.4" height="23.24"/>
		<text transform="matrix(1 0 0 1 85.8244 1590.3423)" class="st8" style="font-size:12px;">FLAVOURING </text>
	</g>
	<g id="pointers">
		<line class="st25" x1="41.72" y1="1141.32" x2="102.45" y2="1164.06"/>
		<line class="st25" x1="80.72" y1="1119.32" x2="138.72" y2="1131.32"/>
		<line class="st25" x1="383.16" y1="1141.48" x2="327.01" y2="1173.9"/>
		<line class="st25" x1="288.38" y1="1132.11" x2="349.79" y2="1111.28"/>
		<line class="st25" x1="16.67" y1="1285.69" x2="81.51" y2="1285.69"/>
	</g>
	<g id="PERCENTAGES">
		<rect x="7.62" y="1131.34" class="st7" width="32.16" height="21.6"/>
		<text transform="matrix(1 0 0 1 7.6242 1139.8618)" class="st8" style="font-size:12px;">1.3% </text>
		<rect x="-10.38" y="1279.34" class="st7" width="32.16" height="21.6"/>
		<text transform="matrix(1 0 0 1 -10.3758 1287.8618)" class="st8" style="font-size:12px;">66.0% </text>
		<rect x="55.62" y="1112.34" class="st7" width="32.16" height="21.6"/>
		<text transform="matrix(1 0 0 1 55.6242 1120.8618)" class="st8" style="font-size:12px;">13.7% </text>
		<rect x="385.62" y="1133.34" class="st7" width="32.16" height="21.6"/>
		<text transform="matrix(1 0 0 1 385.6242 1141.8618)" class="st8" style="font-size:12px;">5.8% </text>
		<rect x="349.62" y="1105.34" class="st7" width="32.16" height="21.6"/>
		<text transform="matrix(1 0 0 1 349.6242 1113.8618)" class="st8" style="font-size:12px;">13.2% </text>
	</g>
	<rect x="289.62" y="1456.78" class="st7" width="174.24" height="151.2"/>
	<text id="sidenote" transform="matrix(1 0 0 1 289.6247 1469.563)"><tspan x="0" y="0" class="st8" style="font-size:18px;">manufacturers do not </tspan><tspan x="0" y="21.6" class="st8" style="font-size:18px;">have to report e-cig </tspan><tspan x="0" y="43.2" class="st8" style="font-size:18px;">ingredients, so most </tspan><tspan x="0" y="64.8" class="st8" style="font-size:18px;">users dont actually </tspan><tspan x="0" y="86.4" class="st8" style="font-size:18px;">know what’s in them.</tspan></text>
	<rect x="386.7" y="1299.58" class="st7" width="41.04" height="15.84"/>
	<text transform="matrix(1 0 0 1.25 386.7043 1306.8623)" style="font-family:'ArialRoundedMTBold'; font-size:10px;">Fig.1.6</text>
</g>
<rect x="-49.78" y="1638.06" class="st7" width="587.6" height="34.56"/>
<text id="source" transform="matrix(1 0 0 1.25 -49.7757 1644.6147)" style="font-family:'ArialRoundedMTBold'; font-size:9px;">Source: National Institute on Drug Abuse; National Institutes of Health; U.S. Department of Health and Human Services.</text>
</svg>
